<?xml version="1.0" encoding="UTF-8" standalone="no"?>
<svg xmlns="http://www.w3.org/2000/svg"
     xmlns:xlink="http://www.w3.org/1999/xlink"
     width="576pt" height="432pt" viewBox="0 0 576 432">
<title>gl2ps_renderer figure</title>
<desc>
Creator: GL2PS 1.4.0, (C) 1999-2017 C. Geuzaine
For: Octave
CreationDate: Tue May 28 19:02:53 2019
</desc>
<defs>
</defs>
<polygon fill="#ffffff" points="0,0 576,0 576,432 0,432"/>
<g>
<polygon fill="#ffffff" points="0,432 576,432 576,0 0,0" shape-rendering="crispEdges"/>
<clipPath id="cp00576432">
  <polygon points="0,432 576,432 576,0 0,0"/>
</clipPath>
<g clip-path="url(#cp00576432)">
<polygon fill="#ffffff" shape-rendering="crispEdges" points="74.88,384.48 521.28,384.48 74.88,32.4"/>
<polygon fill="#ffffff" shape-rendering="crispEdges" points="521.28,384.48 521.28,32.4 74.88,32.4"/>
<polyline fill="none" stroke="#262626" stroke-width="0.5" stroke-linecap="butt" stroke-linejoin="miter" points="74.88,384.48 74.88,380.015"/>
<polyline fill="none" stroke="#262626" stroke-width="0.5" stroke-linecap="butt" stroke-linejoin="miter" points="74.88,32.4 74.88,36.8651"/>
<polyline fill="none" stroke="#262626" stroke-width="0.5" stroke-linecap="butt" stroke-linejoin="miter" points="164.16,384.48 164.16,380.015"/>
<polyline fill="none" stroke="#262626" stroke-width="0.5" stroke-linecap="butt" stroke-linejoin="miter" points="164.16,32.4 164.16,36.8651"/>
<polyline fill="none" stroke="#262626" stroke-width="0.5" stroke-linecap="butt" stroke-linejoin="miter" points="253.44,384.48 253.44,380.015"/>
<polyline fill="none" stroke="#262626" stroke-width="0.5" stroke-linecap="butt" stroke-linejoin="miter" points="253.44,32.4 253.44,36.8651"/>
<polyline fill="none" stroke="#262626" stroke-width="0.5" stroke-linecap="butt" stroke-linejoin="miter" points="342.72,384.48 342.72,380.015"/>
<polyline fill="none" stroke="#262626" stroke-width="0.5" stroke-linecap="butt" stroke-linejoin="miter" points="342.72,32.4 342.72,36.8651"/>
<polyline fill="none" stroke="#262626" stroke-width="0.5" stroke-linecap="butt" stroke-linejoin="miter" points="432,384.48 432,380.015"/>
<polyline fill="none" stroke="#262626" stroke-width="0.5" stroke-linecap="butt" stroke-linejoin="miter" points="432,32.4 432,36.8651"/>
<polyline fill="none" stroke="#262626" stroke-width="0.5" stroke-linecap="butt" stroke-linejoin="miter" points="521.28,384.48 521.28,380.015"/>
<polyline fill="none" stroke="#262626" stroke-width="0.5" stroke-linecap="butt" stroke-linejoin="miter" points="521.28,32.4 521.28,36.8651"/>
<text xml:space="preserve" transform="translate(71.88,400.481) rotate(-0,3,-11)" font-family="FreeSans" font-weight="normal" font-style="normal" font-size="10"><tspan y="-1" fill="rgb(38,38,38)" x="0 ">0</tspan></text>
<text xml:space="preserve" transform="translate(158.16,400.481) rotate(-0,6,-11)" font-family="FreeSans" font-weight="normal" font-style="normal" font-size="10"><tspan y="-1" fill="rgb(38,38,38)" x="0 6 ">20</tspan></text>
<text xml:space="preserve" transform="translate(247.44,400.481) rotate(-0,6,-11)" font-family="FreeSans" font-weight="normal" font-style="normal" font-size="10"><tspan y="-1" fill="rgb(38,38,38)" x="0 6 ">40</tspan></text>
<text xml:space="preserve" transform="translate(336.72,400.481) rotate(-0,6,-11)" font-family="FreeSans" font-weight="normal" font-style="normal" font-size="10"><tspan y="-1" fill="rgb(38,38,38)" x="0 6 ">60</tspan></text>
<text xml:space="preserve" transform="translate(426,400.481) rotate(-0,6,-11)" font-family="FreeSans" font-weight="normal" font-style="normal" font-size="10"><tspan y="-1" fill="rgb(38,38,38)" x="0 6 ">80</tspan></text>
<text xml:space="preserve" transform="translate(512.28,400.481) rotate(-0,9,-11)" font-family="FreeSans" font-weight="normal" font-style="normal" font-size="10"><tspan y="-1" fill="rgb(38,38,38)" x="0 6 12 ">100</tspan></text>
<polyline fill="none" stroke="#262626" stroke-width="0.5" stroke-linecap="butt" stroke-linejoin="miter" points="74.88,349.151 77.114,349.151"/>
<polyline fill="none" stroke="#262626" stroke-width="0.5" stroke-linecap="butt" stroke-linejoin="miter" points="521.28,349.151 519.046,349.151"/>
<polyline fill="none" stroke="#262626" stroke-width="0.5" stroke-linecap="butt" stroke-linejoin="miter" points="74.88,328.485 77.114,328.485"/>
<polyline fill="none" stroke="#262626" stroke-width="0.5" stroke-linecap="butt" stroke-linejoin="miter" points="521.28,328.485 519.046,328.485"/>
<polyline fill="none" stroke="#262626" stroke-width="0.5" stroke-linecap="butt" stroke-linejoin="miter" points="74.88,313.822 77.114,313.822"/>
<polyline fill="none" stroke="#262626" stroke-width="0.5" stroke-linecap="butt" stroke-linejoin="miter" points="521.28,313.822 519.046,313.822"/>
<polyline fill="none" stroke="#262626" stroke-width="0.5" stroke-linecap="butt" stroke-linejoin="miter" points="74.88,302.449 77.114,302.449"/>
<polyline fill="none" stroke="#262626" stroke-width="0.5" stroke-linecap="butt" stroke-linejoin="miter" points="521.28,302.449 519.046,302.449"/>
<polyline fill="none" stroke="#262626" stroke-width="0.5" stroke-linecap="butt" stroke-linejoin="miter" points="74.88,293.156 77.114,293.156"/>
<polyline fill="none" stroke="#262626" stroke-width="0.5" stroke-linecap="butt" stroke-linejoin="miter" points="521.28,293.156 519.046,293.156"/>
<polyline fill="none" stroke="#262626" stroke-width="0.5" stroke-linecap="butt" stroke-linejoin="miter" points="74.88,285.299 77.114,285.299"/>
<polyline fill="none" stroke="#262626" stroke-width="0.5" stroke-linecap="butt" stroke-linejoin="miter" points="521.28,285.299 519.046,285.299"/>
<polyline fill="none" stroke="#262626" stroke-width="0.5" stroke-linecap="butt" stroke-linejoin="miter" points="74.88,278.493 77.114,278.493"/>
<polyline fill="none" stroke="#262626" stroke-width="0.5" stroke-linecap="butt" stroke-linejoin="miter" points="521.28,278.493 519.046,278.493"/>
<polyline fill="none" stroke="#262626" stroke-width="0.5" stroke-linecap="butt" stroke-linejoin="miter" points="74.88,272.49 77.114,272.49"/>
<polyline fill="none" stroke="#262626" stroke-width="0.5" stroke-linecap="butt" stroke-linejoin="miter" points="521.28,272.49 519.046,272.49"/>
<polyline fill="none" stroke="#262626" stroke-width="0.5" stroke-linecap="butt" stroke-linejoin="miter" points="74.88,231.791 77.114,231.791"/>
<polyline fill="none" stroke="#262626" stroke-width="0.5" stroke-linecap="butt" stroke-linejoin="miter" points="521.28,231.791 519.046,231.791"/>
<polyline fill="none" stroke="#262626" stroke-width="0.5" stroke-linecap="butt" stroke-linejoin="miter" points="74.88,211.125 77.114,211.125"/>
<polyline fill="none" stroke="#262626" stroke-width="0.5" stroke-linecap="butt" stroke-linejoin="miter" points="521.28,211.125 519.046,211.125"/>
<polyline fill="none" stroke="#262626" stroke-width="0.5" stroke-linecap="butt" stroke-linejoin="miter" points="74.88,196.462 77.114,196.462"/>
<polyline fill="none" stroke="#262626" stroke-width="0.5" stroke-linecap="butt" stroke-linejoin="miter" points="521.28,196.462 519.046,196.462"/>
<polyline fill="none" stroke="#262626" stroke-width="0.5" stroke-linecap="butt" stroke-linejoin="miter" points="74.88,185.089 77.114,185.089"/>
<polyline fill="none" stroke="#262626" stroke-width="0.5" stroke-linecap="butt" stroke-linejoin="miter" points="521.28,185.089 519.046,185.089"/>
<polyline fill="none" stroke="#262626" stroke-width="0.5" stroke-linecap="butt" stroke-linejoin="miter" points="74.88,175.796 77.114,175.796"/>
<polyline fill="none" stroke="#262626" stroke-width="0.5" stroke-linecap="butt" stroke-linejoin="miter" points="521.28,175.796 519.046,175.796"/>
<polyline fill="none" stroke="#262626" stroke-width="0.5" stroke-linecap="butt" stroke-linejoin="miter" points="74.88,167.939 77.114,167.939"/>
<polyline fill="none" stroke="#262626" stroke-width="0.5" stroke-linecap="butt" stroke-linejoin="miter" points="521.28,167.939 519.046,167.939"/>
<polyline fill="none" stroke="#262626" stroke-width="0.5" stroke-linecap="butt" stroke-linejoin="miter" points="74.88,161.133 77.114,161.133"/>
<polyline fill="none" stroke="#262626" stroke-width="0.5" stroke-linecap="butt" stroke-linejoin="miter" points="521.28,161.133 519.046,161.133"/>
<polyline fill="none" stroke="#262626" stroke-width="0.5" stroke-linecap="butt" stroke-linejoin="miter" points="74.88,155.13 77.114,155.13"/>
<polyline fill="none" stroke="#262626" stroke-width="0.5" stroke-linecap="butt" stroke-linejoin="miter" points="521.28,155.13 519.046,155.13"/>
<polyline fill="none" stroke="#262626" stroke-width="0.5" stroke-linecap="butt" stroke-linejoin="miter" points="74.88,114.431 77.114,114.431"/>
<polyline fill="none" stroke="#262626" stroke-width="0.5" stroke-linecap="butt" stroke-linejoin="miter" points="521.28,114.431 519.046,114.431"/>
<polyline fill="none" stroke="#262626" stroke-width="0.5" stroke-linecap="butt" stroke-linejoin="miter" points="74.88,93.7651 77.114,93.7651"/>
<polyline fill="none" stroke="#262626" stroke-width="0.5" stroke-linecap="butt" stroke-linejoin="miter" points="521.28,93.7651 519.046,93.7651"/>
<polyline fill="none" stroke="#262626" stroke-width="0.5" stroke-linecap="butt" stroke-linejoin="miter" points="74.88,79.1023 77.114,79.1023"/>
<polyline fill="none" stroke="#262626" stroke-width="0.5" stroke-linecap="butt" stroke-linejoin="miter" points="521.28,79.1023 519.046,79.1023"/>
<polyline fill="none" stroke="#262626" stroke-width="0.5" stroke-linecap="butt" stroke-linejoin="miter" points="74.88,67.7289 77.114,67.7289"/>
<polyline fill="none" stroke="#262626" stroke-width="0.5" stroke-linecap="butt" stroke-linejoin="miter" points="521.28,67.7289 519.046,67.7289"/>
<polyline fill="none" stroke="#262626" stroke-width="0.5" stroke-linecap="butt" stroke-linejoin="miter" points="74.88,58.4362 77.114,58.4362"/>
<polyline fill="none" stroke="#262626" stroke-width="0.5" stroke-linecap="butt" stroke-linejoin="miter" points="521.28,58.4362 519.046,58.4362"/>
<polyline fill="none" stroke="#262626" stroke-width="0.5" stroke-linecap="butt" stroke-linejoin="miter" points="74.88,50.5793 77.114,50.5793"/>
<polyline fill="none" stroke="#262626" stroke-width="0.5" stroke-linecap="butt" stroke-linejoin="miter" points="521.28,50.5793 519.046,50.5793"/>
<polyline fill="none" stroke="#262626" stroke-width="0.5" stroke-linecap="butt" stroke-linejoin="miter" points="74.88,43.7734 77.114,43.7734"/>
<polyline fill="none" stroke="#262626" stroke-width="0.5" stroke-linecap="butt" stroke-linejoin="miter" points="521.28,43.7734 519.046,43.7734"/>
<polyline fill="none" stroke="#262626" stroke-width="0.5" stroke-linecap="butt" stroke-linejoin="miter" points="74.88,37.7701 77.114,37.7701"/>
<polyline fill="none" stroke="#262626" stroke-width="0.5" stroke-linecap="butt" stroke-linejoin="miter" points="521.28,37.7701 519.046,37.7701"/>
<polyline fill="none" stroke="#262626" stroke-width="0.5" stroke-linecap="butt" stroke-linejoin="miter" points="74.88,384.48 79.348,384.48"/>
<polyline fill="none" stroke="#262626" stroke-width="0.5" stroke-linecap="butt" stroke-linejoin="miter" points="521.28,384.48 516.812,384.48"/>
<polyline fill="none" stroke="#262626" stroke-width="0.5" stroke-linecap="butt" stroke-linejoin="miter" points="74.88,267.12 79.348,267.12"/>
<polyline fill="none" stroke="#262626" stroke-width="0.5" stroke-linecap="butt" stroke-linejoin="miter" points="521.28,267.12 516.812,267.12"/>
<polyline fill="none" stroke="#262626" stroke-width="0.5" stroke-linecap="butt" stroke-linejoin="miter" points="74.88,149.76 79.348,149.76"/>
<polyline fill="none" stroke="#262626" stroke-width="0.5" stroke-linecap="butt" stroke-linejoin="miter" points="521.28,149.76 516.812,149.76"/>
<polyline fill="none" stroke="#262626" stroke-width="0.5" stroke-linecap="butt" stroke-linejoin="miter" points="74.88,32.4 79.348,32.4"/>
<polyline fill="none" stroke="#262626" stroke-width="0.5" stroke-linecap="butt" stroke-linejoin="miter" points="521.28,32.4 516.812,32.4"/>
<text xml:space="preserve" transform="translate(50.8755,392.48) rotate(-0,19,-8)" font-family="FreeSans" font-weight="normal" font-style="normal" font-size="10"><tspan y="-1" fill="rgb(38,38,38)" x="0 6 ">10</tspan><tspan font-size="8" y="-7" fill="rgb(38,38,38)" x="12 15 ">-5</tspan></text>
<text xml:space="preserve" transform="translate(50.8755,275.12) rotate(-0,19,-8)" font-family="FreeSans" font-weight="normal" font-style="normal" font-size="10"><tspan y="-1" fill="rgb(38,38,38)" x="0 6 ">10</tspan><tspan font-size="8" y="-7" fill="rgb(38,38,38)" x="12 15 ">-4</tspan></text>
<text xml:space="preserve" transform="translate(50.8755,157.76) rotate(-0,19,-8)" font-family="FreeSans" font-weight="normal" font-style="normal" font-size="10"><tspan y="-1" fill="rgb(38,38,38)" x="0 6 ">10</tspan><tspan font-size="8" y="-7" fill="rgb(38,38,38)" x="12 15 ">-3</tspan></text>
<text xml:space="preserve" transform="translate(50.8755,40.4) rotate(-0,19,-8)" font-family="FreeSans" font-weight="normal" font-style="normal" font-size="10"><tspan y="-1" fill="rgb(38,38,38)" x="0 6 ">10</tspan><tspan font-size="8" y="-7" fill="rgb(38,38,38)" x="12 15 ">-2</tspan></text>
<polyline fill="none" stroke="#262626" stroke-width="0.5" stroke-linecap="square" stroke-linejoin="miter" stroke-dasharray="16,0" points="74.88,384.48 521.28,384.48"/>
<polyline fill="none" stroke="#262626" stroke-width="0.5" stroke-linecap="square" stroke-linejoin="miter" stroke-dasharray="16,0" points="74.88,32.4 521.28,32.4"/>
<polyline fill="none" stroke="#262626" stroke-width="0.5" stroke-linecap="square" stroke-linejoin="miter" stroke-dasharray="16,0" points="74.88,384.48 74.88,32.4"/>
<polyline fill="none" stroke="#262626" stroke-width="0.5" stroke-linecap="square" stroke-linejoin="miter" stroke-dasharray="16,0" points="521.28,384.48 521.28,32.4"/>
<text xml:space="preserve" transform="translate(295.08,413.481) rotate(-0,3,-13)" font-family="FreeSans" font-weight="normal" font-style="normal" font-size="11"><tspan y="-2" fill="rgb(38,38,38)" x="0 ">n</tspan></text>
<text xml:space="preserve" transform="translate(14.3755,208.44) rotate(-90,32.5,0)" font-family="FreeSans" font-weight="normal" font-style="normal" font-size="11"><tspan y="-2" fill="rgb(38,38,38)" x="0 6 11 17 20 23 25 34 40 43 47 56 61 ">avg time (ms)</tspan></text>
<polyline fill="none" stroke="#0071bc" stroke-width="2" stroke-linecap="butt" stroke-linejoin="round" points="79.344,296.643 83.808,295.87 88.272,300.092 92.736,300.738 97.2,305.439 101.664,311.607 106.128,315.485 110.592,315.161 115.056,318.169 119.52,320.184 123.984,322.508 128.448,325.298 132.912,327.445 137.376,329.875 141.84,331.952 146.304,332.612 150.768,332.581 155.232,332.644 159.696,332.587 164.16,332.609 168.624,332.615 173.088,332.591 177.552,332.651 182.016,332.548 186.48,332.56 190.944,332.469 195.408,332.507 199.872,331.541 204.336,332.647 208.8,332.604 213.264,332.501 217.728,332.543 222.192,332.461 226.656,332.554 231.12,332.557 235.584,329.698 240.048,331.447 244.512,330.673 248.976,330.563 253.44,332.758 257.904,332.718 262.368,332.597 266.832,332.587 271.296,331.723 275.76,332.441 280.224,332.407 284.688,332.308 289.152,332.486 293.616,332.034 298.08,332.181 302.544,330.456 307.008,331.939 311.472,332.468 315.936,332.428 320.4,332.136 324.864,331.987 329.328,332.449 333.792,332.462 338.256,332.361 342.72,332.484 347.184,332.343 351.648,332.39 356.112,332.418 360.576,332.221 365.04,332.529 369.504,332.264 373.968,331.513 378.432,332.367 382.896,331.977 387.36,332.067 391.824,332.291 396.288,332.394 400.752,332.204 405.216,331.792 409.68,332.291 414.144,332.289 418.608,331.66 423.072,331.885 427.536,332.201 432,332.29 436.464,331.858 440.928,332.325 445.392,332.004 449.856,331.879 454.32,327.229 458.784,332.276 463.248,332.3 467.712,331.932 472.176,332.338 476.64,332.29 481.104,332.184 485.568,332.23 490.032,332.307 494.496,332.352 498.96,331.812 503.424,332.059 507.888,332.191 512.352,332.183 516.816,332.228 521.28,332.242"/>
<polyline fill="none" stroke="#d85218" stroke-width="2" stroke-linecap="butt" stroke-linejoin="round" points="79.344,331.911 83.808,334.087 88.272,334.598 92.736,334.809 97.2,334.787 101.664,330.532 106.128,335.089 110.592,335.165 115.056,335.305 119.52,335.329 123.984,334.872 128.448,335.099 132.912,335.093 137.376,334.872 141.84,334.525 146.304,335.103 150.768,335.522 155.232,335.228 159.696,334.946 164.16,334.93 168.624,334.927 173.088,334.68 177.552,334.984 182.016,335.171 186.48,335.095 190.944,335.617 195.408,335.185 199.872,334.919 204.336,334.99 208.8,335.1 213.264,334.165 217.728,334.699 222.192,334.346 226.656,335.26 231.12,333.677 235.584,335.135 240.048,335.168 244.512,335.116 248.976,335.178 253.44,334.951 257.904,335.065 262.368,335.13 266.832,335.091 271.296,334.848 275.76,335.32 280.224,334.997 284.688,335.066 289.152,334.283 293.616,334.997 298.08,334.09 302.544,334.588 307.008,334.962 311.472,335.098 315.936,335.205 320.4,335.155 324.864,334.987 329.328,334.636 333.792,335.053 338.256,333.783 342.72,334.214 347.184,332.25 351.648,335.152 356.112,334.615 360.576,333.829 365.04,334.821 369.504,334.296 373.968,325.143 378.432,324.936 382.896,328.466 387.36,326.908 391.824,335.495 396.288,335.919 400.752,335.817 405.216,334.769 409.68,334.849 414.144,334.683 418.608,335.101 423.072,334.232 427.536,335.003 432,334.734 436.464,334.33 440.928,334.078 445.392,334.947 449.856,334.618 454.32,334.592 458.784,334.075 463.248,334.747 467.712,334.536 472.176,334.538 476.64,334.381 481.104,334.726 485.568,334.025 490.032,334.72 494.496,311.212 498.96,322.448 503.424,334.409 507.888,335.515 512.352,332.957 516.816,334.514 521.28,334.419"/>
<polyline fill="none" stroke="#ecb01f" stroke-width="2" stroke-linecap="butt" stroke-linejoin="round" points="79.344,308.868 83.808,311.148 88.272,307.752 92.736,299.007 97.2,297.309 101.664,294.12 106.128,296.905 110.592,298.662 115.056,302.103 119.52,305.518 123.984,307.017 128.448,307.732 132.912,274.984 137.376,291.25 141.84,304.419 146.304,308.542 150.768,308.723 155.232,308.614 159.696,308.539 164.16,308.545 168.624,308.417 173.088,308.274 177.552,308.303 182.016,308.009 186.48,299.366 190.944,299.977 195.408,296.632 199.872,293.216 204.336,294.12 208.8,301.624 213.264,292.711 217.728,291.816 222.192,292.147 226.656,296.891 231.12,295.352 235.584,304.687 240.048,303.298 244.512,299.536 248.976,294.799 253.44,294.581 257.904,292.486 262.368,295.003 266.832,289.552 271.296,291.4 275.76,289.491 280.224,291.849 284.688,288.349 289.152,291.198 293.616,291.68 298.08,290.66 302.544,294.371 307.008,290.7 311.472,287.625 315.936,297.053 320.4,301.542 324.864,301.775 329.328,290.739 333.792,302.837 338.256,302.217 342.72,306.809 347.184,302.442 351.648,296.489 356.112,306.79 360.576,301.005 365.04,306.256 369.504,306.79 373.968,302.216 378.432,306.639 382.896,303.233 387.36,306.177 391.824,303.406 396.288,299.291 400.752,304.53 405.216,295.733 409.68,298.072 414.144,302.814 418.608,306.446 423.072,304.571 427.536,305.778 432,299.338 436.464,296.108 440.928,285.699 445.392,294.971 449.856,296.533 454.32,298.104 458.784,305.919 463.248,304.229 467.712,302.888 472.176,304.315 476.64,304.872 481.104,303.873 485.568,304.927 490.032,304.716 494.496,295.471 498.96,304.163 503.424,298.566 507.888,304.263 512.352,304.894 516.816,304.873 521.28,304.948"/>
<polyline fill="none" stroke="#7d2e8d" stroke-width="2" stroke-linecap="butt" stroke-linejoin="round" points="79.344,306.7 83.808,310.218 88.272,308 92.736,308.236 97.2,308.26 101.664,307.572 106.128,307.481 110.592,308.473 115.056,307.68 119.52,306.843 123.984,307.671 128.448,307.253 132.912,308.274 137.376,307.551 141.84,307.502 146.304,307.438 150.768,279.109 155.232,305.805 159.696,306.325 164.16,277.114 168.624,284.231 173.088,304.992 177.552,287.007 182.016,305.49 186.48,287.217 190.944,275.28 195.408,286.905 199.872,304.057 204.336,285.056 208.8,302.701 213.264,305.267 217.728,274.335 222.192,287.553 226.656,275.018 231.12,280.576 235.584,277.065 240.048,285.987 244.512,273.723 248.976,284.452 253.44,275.499 257.904,267.826 262.368,241.463 266.832,271.694 271.296,275.138 275.76,284.545 280.224,256.892 284.688,279.431 289.152,273.009 293.616,287.259 298.08,278.813 302.544,271.813 307.008,251.026 311.472,282.464 315.936,275.107 320.4,279.441 324.864,274.947 329.328,255.14 333.792,249.871 338.256,270.461 342.72,277.077 347.184,285.996 351.648,271.231 356.112,302.802 360.576,270.773 365.04,274.897 369.504,242.284 373.968,280.46 378.432,275.643 382.896,276.09 387.36,246.048 391.824,280.018 396.288,275.799 400.752,248.669 405.216,271.643 409.68,278.507 414.144,271.042 418.608,268.167 423.072,247.72 427.536,275.36 432,266.349 436.464,250.082 440.928,256.263 445.392,270.536 449.856,270.588 454.32,242.601 458.784,271.336 463.248,263.466 467.712,256.312 472.176,273.092 476.64,266.304 481.104,259.231 485.568,268.252 490.032,237.463 494.496,269.168 498.96,270.01 503.424,272.582 507.888,269.927 512.352,263.42 516.816,268.341 521.28,267.989"/>
<polyline fill="none" stroke="#76ab2f" stroke-width="2" stroke-linecap="butt" stroke-linejoin="round" points="79.344,377.199 83.808,362.187 88.272,345.921 92.736,332.208 97.2,321.025 101.664,309.097 106.128,299.359 110.592,291.393 115.056,285.202 119.52,279.48 123.984,275.6 128.448,270.285 132.912,266.126 137.376,263.304 141.84,259.706 146.304,256.462 150.768,253.374 155.232,250.41 159.696,247.543 164.16,245.018 168.624,242.621 173.088,240.39 177.552,238.208 182.016,235.868 186.48,233.858 190.944,231.806 195.408,229.615 199.872,228.087 204.336,226.191 208.8,224.279 213.264,222.646 217.728,221.051 222.192,219.662 226.656,218.042 231.12,209.301 235.584,215.563 240.048,213.834 244.512,212.543 248.976,211.319 253.44,210.094 257.904,208.488 262.368,207.671 266.832,206.544 271.296,205.265 275.76,203.994 280.224,202.933 284.688,201.802 289.152,200.701 293.616,199.75 298.08,198.764 302.544,197.554 307.008,196.767 311.472,195.824 315.936,194.769 320.4,193.894 324.864,192.979 329.328,192.065 333.792,191.119 338.256,186.32 342.72,187.223 347.184,187.988 351.648,186.385 356.112,186.402 360.576,185.582 365.04,182.091 369.504,183.919 373.968,183.589 378.432,182.547 382.896,181.556 387.36,181.038 391.824,179.898 396.288,179.77 400.752,179.249 405.216,177.591 409.68,177.765 414.144,177.21 418.608,176.357 423.072,175.829 427.536,175.029 432,174.367 436.464,173.628 440.928,172.835 445.392,172.619 449.856,170.213 454.32,170.343 458.784,167.267 463.248,159.019 467.712,161.375 472.176,165.275 476.64,162.332 481.104,164.052 485.568,165.089 490.032,161.529 494.496,163.534 498.96,160.799 503.424,163.613 507.888,161.5 512.352,161.785 516.816,162.866 521.28,161.99"/>
<polyline fill="none" stroke="#4cbded" stroke-width="2" stroke-linecap="butt" stroke-linejoin="round" points="79.344,331.251 83.808,334.531 88.272,335.095 92.736,257.618 97.2,304.885 101.664,296.15 106.128,293.938 110.592,272.555 115.056,267.215 119.52,254.221 123.984,246.093 128.448,236.625 132.912,228.906 137.376,222.589 141.84,216.8 146.304,210.484 150.768,205.268 155.232,200.786 159.696,196.22 164.16,191.805 168.624,188.004 173.088,184.295 177.552,180.785 182.016,172.552 186.48,171.863 190.944,158.811 195.408,165.71 199.872,166.465 204.336,155.896 208.8,162.324 213.264,159.346 217.728,154.025 222.192,155.206 226.656,153.249 231.12,151.347 235.584,147.386 240.048,149.885 244.512,147.915 248.976,146.339 253.44,144.457 257.904,142.536 262.368,141.068 266.832,139.521 271.296,138.075 275.76,136.557 280.224,135.181 284.688,133.686 289.152,132.182 293.616,130.979 298.08,129.513 302.544,126.697 307.008,127.175 311.472,124.818 315.936,124.699 320.4,123.483 324.864,122.316 329.328,121.322 333.792,120.061 338.256,118.847 342.72,117.971 347.184,116.904 351.648,115.766 356.112,114.953 360.576,114.085 365.04,113.059 369.504,111.905 373.968,111.048 378.432,110.061 382.896,109.277 387.36,107.709 391.824,107.427 396.288,106.541 400.752,105.634 405.216,104.821 409.68,103.655 414.144,103.038 418.608,102.373 423.072,101.677 427.536,100.884 432,100.107 436.464,99.4008 440.928,98.5909 445.392,97.7829 449.856,97.0497 454.32,96.1426 458.784,95.6873 463.248,95.0863 467.712,94.3252 472.176,93.7115 476.64,93.1392 481.104,92.4528 485.568,91.595 490.032,91.0333 494.496,90.5044 498.96,89.7401 503.424,89.0859 507.888,88.5645 512.352,86.7426 516.816,86.1413 521.28,86.8981"/>
</g>
<clipPath id="cp00576432">
  <polygon points="0,432 576,432 576,0 0,0"/>
</clipPath>
<g clip-path="url(#cp00576432)">
<polygon fill="#ffffff" shape-rendering="crispEdges" points="77.6258,119.506 148.628,119.506 77.6258,35.1458"/>
<polygon fill="#ffffff" shape-rendering="crispEdges" points="148.628,119.506 148.628,35.1458 77.6258,35.1458"/>
<polyline fill="none" stroke="#262626" stroke-width="0.5" stroke-linecap="square" stroke-linejoin="miter" stroke-dasharray="16,0" points="77.6258,119.506 148.628,119.506"/>
<polyline fill="none" stroke="#262626" stroke-width="0.5" stroke-linecap="square" stroke-linejoin="miter" stroke-dasharray="16,0" points="77.6258,35.1458 148.628,35.1458"/>
<polyline fill="none" stroke="#262626" stroke-width="0.5" stroke-linecap="square" stroke-linejoin="miter" stroke-dasharray="16,0" points="77.6258,119.506 77.6258,35.1458"/>
<polyline fill="none" stroke="#262626" stroke-width="0.5" stroke-linecap="square" stroke-linejoin="miter" stroke-dasharray="16,0" points="148.628,119.506 148.628,35.1458"/>
<text xml:space="preserve" transform="translate(103.711,47.6759) rotate(-0,-0,-5.5)" font-family="FreeSans" font-weight="normal" font-style="normal" font-size="9"><tspan y="-1" fill="rgb(0,0,0)" x="0 4 9 11 16 21 26 31 34 ">ybincoeff</tspan></text>
<text xml:space="preserve" transform="translate(103.711,61.7359) rotate(-0,-0,-5.5)" font-family="FreeSans" font-weight="normal" font-style="normal" font-size="9"><tspan y="-1" fill="rgb(0,0,0)" x="0 5 10 12 17 22 27 32 35 ">gbincoeff</tspan></text>
<text xml:space="preserve" transform="translate(103.711,75.796) rotate(-0,-0,-5.5)" font-family="FreeSans" font-weight="normal" font-style="normal" font-size="9"><tspan y="-1" fill="rgb(0,0,0)" x="0 3 8 10 15 20 25 30 33 ">fbincoeff</tspan></text>
<text xml:space="preserve" transform="translate(103.711,89.8561) rotate(-0,-0,-5.5)" font-family="FreeSans" font-weight="normal" font-style="normal" font-size="9"><tspan y="-1" fill="rgb(0,0,0)" x="0 3 6 9 14 16 21 26 31 36 ">fftbincoef</tspan></text>
<text xml:space="preserve" transform="translate(103.711,103.916) rotate(-0,-0,-5.5)" font-family="FreeSans" font-weight="normal" font-style="normal" font-size="9"><tspan y="-1" fill="rgb(0,0,0)" x="0 3 8 10 15 20 25 30 33 ">rbincoeff</tspan></text>
<text xml:space="preserve" transform="translate(103.711,117.976) rotate(-0,-0,-5.5)" font-family="FreeSans" font-weight="normal" font-style="normal" font-size="9"><tspan y="-1" fill="rgb(0,0,0)" x="0 5 8 13 15 20 25 30 35 38 ">pfbincoeff</tspan></text>
<polyline fill="none" stroke="#0071bc" stroke-width="2" stroke-linecap="butt" stroke-linejoin="round" points="80.3716,42.1758 100.965,42.1758"/>
<polyline fill="none" stroke="#d85218" stroke-width="2" stroke-linecap="butt" stroke-linejoin="round" points="80.3716,56.236 100.965,56.236"/>
<polyline fill="none" stroke="#ecb01f" stroke-width="2" stroke-linecap="butt" stroke-linejoin="round" points="80.3716,70.296 100.965,70.296"/>
<polyline fill="none" stroke="#7d2e8d" stroke-width="2" stroke-linecap="butt" stroke-linejoin="round" points="80.3716,84.3561 100.965,84.3561"/>
<polyline fill="none" stroke="#76ab2f" stroke-width="2" stroke-linecap="butt" stroke-linejoin="round" points="80.3716,98.4162 100.965,98.4162"/>
<polyline fill="none" stroke="#4cbded" stroke-width="2" stroke-linecap="butt" stroke-linejoin="round" points="80.3716,112.476 100.965,112.476"/>
</g>
</g>
</svg>
