<?xml version="1.0" encoding="UTF-8" standalone="no"?>
<svg
   xmlns:dc="http://purl.org/dc/elements/1.1/"
   xmlns:cc="http://creativecommons.org/ns#"
   xmlns:rdf="http://www.w3.org/1999/02/22-rdf-syntax-ns#"
   xmlns:svg="http://www.w3.org/2000/svg"
   xmlns="http://www.w3.org/2000/svg"
   xmlns:sodipodi="http://sodipodi.sourceforge.net/DTD/sodipodi-0.dtd"
   xmlns:inkscape="http://www.inkscape.org/namespaces/inkscape"
   width="511.46356pt"
   height="401.42761pt"
   viewBox="0 0 511.46356 401.42761"
   version="1.1"
   id="svg373"
   sodipodi:docname="benchmarckvec.svg"
   inkscape:version="0.92.3 (2405546, 2018-03-11)">
  <metadata
     id="metadata377">
    <rdf:RDF>
      <cc:Work
         rdf:about="">
        <dc:format>image/svg+xml</dc:format>
        <dc:type
           rdf:resource="http://purl.org/dc/dcmitype/StillImage" />
        <dc:title>gl2ps_renderer figure</dc:title>
      </cc:Work>
    </rdf:RDF>
  </metadata>
  <sodipodi:namedview
     pagecolor="#ffffff"
     bordercolor="#666666"
     borderopacity="1"
     objecttolerance="10"
     gridtolerance="10"
     guidetolerance="10"
     inkscape:pageopacity="0"
     inkscape:pageshadow="2"
     inkscape:window-width="1366"
     inkscape:window-height="703"
     id="namedview375"
     showgrid="false"
     inkscape:zoom="0.98274252"
     inkscape:cx="155.2709"
     inkscape:cy="267.61842"
     inkscape:window-x="0"
     inkscape:window-y="27"
     inkscape:window-maximized="0"
     inkscape:current-layer="svg373"
     fit-margin-top="0"
     fit-margin-left="0"
     fit-margin-right="0"
     fit-margin-bottom="0" />
  <title
     id="title2">gl2ps_renderer figure</title>
  <desc
     id="desc4">
Creator: GL2PS 1.4.0, (C) 1999-2017 C. Geuzaine
For: Octave
CreationDate: Thu May 16 14:23:41 2019
</desc>
  <defs
     id="defs6">
    <clipPath
       id="cp00576432">
      <polygon
         id="polygon12"
         points="576,432 576,0 0,0 0,432 " />
    </clipPath>
    <clipPath
       id="clipPath319">
      <polygon
         id="polygon317"
         points="576,432 576,0 0,0 0,432 " />
    </clipPath>
  </defs>
  <polyline
     points="74.88,384.48 74.88,380.015"
     id="polyline19"
     style="fill:none;stroke:#000000;stroke-width:0.5;stroke-linecap:butt;stroke-linejoin:miter"
     transform="translate(-20.293951,-25.942704)" />
  <polyline
     points="74.88,32.4 74.88,36.865"
     id="polyline21"
     style="fill:none;stroke:#000000;stroke-width:0.5;stroke-linecap:butt;stroke-linejoin:miter"
     transform="translate(-20.293951,-25.942704)" />
  <polyline
     points="164.16,384.48 164.16,380.015"
     id="polyline23"
     style="fill:none;stroke:#000000;stroke-width:0.5;stroke-linecap:butt;stroke-linejoin:miter"
     transform="translate(-20.293951,-25.942704)" />
  <polyline
     points="164.16,32.4 164.16,36.865"
     id="polyline25"
     style="fill:none;stroke:#000000;stroke-width:0.5;stroke-linecap:butt;stroke-linejoin:miter"
     transform="translate(-20.293951,-25.942704)" />
  <polyline
     points="253.44,384.48 253.44,380.015"
     id="polyline27"
     style="fill:none;stroke:#000000;stroke-width:0.5;stroke-linecap:butt;stroke-linejoin:miter"
     transform="translate(-20.293951,-25.942704)" />
  <polyline
     points="253.44,32.4 253.44,36.865"
     id="polyline29"
     style="fill:none;stroke:#000000;stroke-width:0.5;stroke-linecap:butt;stroke-linejoin:miter"
     transform="translate(-20.293951,-25.942704)" />
  <polyline
     points="342.72,384.48 342.72,380.015"
     id="polyline31"
     style="fill:none;stroke:#000000;stroke-width:0.5;stroke-linecap:butt;stroke-linejoin:miter"
     transform="translate(-20.293951,-25.942704)" />
  <polyline
     points="342.72,32.4 342.72,36.865"
     id="polyline33"
     style="fill:none;stroke:#000000;stroke-width:0.5;stroke-linecap:butt;stroke-linejoin:miter"
     transform="translate(-20.293951,-25.942704)" />
  <polyline
     points="432,384.48 432,380.015"
     id="polyline35"
     style="fill:none;stroke:#000000;stroke-width:0.5;stroke-linecap:butt;stroke-linejoin:miter"
     transform="translate(-20.293951,-25.942704)" />
  <polyline
     points="432,32.4 432,36.865"
     id="polyline37"
     style="fill:none;stroke:#000000;stroke-width:0.5;stroke-linecap:butt;stroke-linejoin:miter"
     transform="translate(-20.293951,-25.942704)" />
  <polyline
     points="521.28,384.48 521.28,380.015"
     id="polyline39"
     style="fill:none;stroke:#000000;stroke-width:0.5;stroke-linecap:butt;stroke-linejoin:miter"
     transform="translate(-20.293951,-25.942704)" />
  <polyline
     points="521.28,32.4 521.28,36.865"
     id="polyline41"
     style="fill:none;stroke:#000000;stroke-width:0.5;stroke-linecap:butt;stroke-linejoin:miter"
     transform="translate(-20.293951,-25.942704)" />
  <text
     xml:space="preserve"
     font-weight="normal"
     font-style="normal"
     font-size="10"
     id="text45"
     style="font-style:normal;font-weight:normal;font-size:13px;font-family:FreeSans;fill:#000000;stroke-width:1.29999995"
     x="50.761051"
     y="377.36728"><tspan
       y="376.06726"
       x="50.761051"
       id="tspan43"
       style="fill:#000000;stroke-width:1.29999995">0</tspan></text>
  <text
     xml:space="preserve"
     font-weight="normal"
     font-style="normal"
     font-size="10"
     id="text49"
     style="font-style:normal;font-weight:normal;font-size:13px;font-family:FreeSans;fill:#000000;stroke-width:1.29999995"
     x="136.15456"
     y="377.36728"><tspan
       y="376.06726"
       x="136.15456 143.95456"
       id="tspan47"
       style="fill:#000000;stroke-width:1.29999995">20</tspan></text>
  <text
     xml:space="preserve"
     font-weight="normal"
     font-style="normal"
     font-size="10"
     id="text53"
     style="font-style:normal;font-weight:normal;font-size:13px;font-family:FreeSans;fill:#000000;stroke-width:1.29999995"
     x="225.44356"
     y="377.36728"><tspan
       y="376.06726"
       x="225.44356 233.24356"
       id="tspan51"
       style="fill:#000000;stroke-width:1.29999995">40</tspan></text>
  <text
     xml:space="preserve"
     font-weight="normal"
     font-style="normal"
     font-size="10"
     id="text57"
     style="font-style:normal;font-weight:normal;font-size:13px;font-family:FreeSans;fill:#000000;stroke-width:1.29999995"
     x="314.70105"
     y="377.36728"><tspan
       y="376.06726"
       x="314.70105 322.50107"
       id="tspan55"
       style="fill:#000000;stroke-width:1.29999995">60</tspan></text>
  <text
     xml:space="preserve"
     font-weight="normal"
     font-style="normal"
     font-size="10"
     id="text61"
     style="font-style:normal;font-weight:normal;font-size:13px;font-family:FreeSans;fill:#000000;stroke-width:1.29999995"
     x="403.99005"
     y="377.36728"><tspan
       y="376.06726"
       x="403.99005 411.79007"
       id="tspan59"
       style="fill:#000000;stroke-width:1.29999995">80</tspan></text>
  <text
     xml:space="preserve"
     font-weight="normal"
     font-style="normal"
     font-size="10"
     id="text65"
     style="font-style:normal;font-weight:normal;font-size:13px;font-family:FreeSans;fill:#000000;stroke-width:1.29999995"
     x="489.27258"
     y="377.36728"><tspan
       y="376.06726"
       x="489.27258 497.07257 504.87256"
       id="tspan63"
       style="fill:#000000;stroke-width:1.29999995">100</tspan></text>
  <polyline
     points="74.88,363.283 77.114,363.283"
     id="polyline67"
     style="fill:none;stroke:#000000;stroke-width:0.5;stroke-linecap:butt;stroke-linejoin:miter"
     transform="translate(-20.293951,-25.942704)" />
  <polyline
     points="521.28,363.283 519.046,363.283"
     id="polyline69"
     style="fill:none;stroke:#000000;stroke-width:0.5;stroke-linecap:butt;stroke-linejoin:miter"
     transform="translate(-20.293951,-25.942704)" />
  <polyline
     points="74.88,350.883 77.114,350.883"
     id="polyline71"
     style="fill:none;stroke:#000000;stroke-width:0.5;stroke-linecap:butt;stroke-linejoin:miter"
     transform="translate(-20.293951,-25.942704)" />
  <polyline
     points="521.28,350.883 519.046,350.883"
     id="polyline73"
     style="fill:none;stroke:#000000;stroke-width:0.5;stroke-linecap:butt;stroke-linejoin:miter"
     transform="translate(-20.293951,-25.942704)" />
  <polyline
     points="74.88,342.085 77.114,342.085"
     id="polyline75"
     style="fill:none;stroke:#000000;stroke-width:0.5;stroke-linecap:butt;stroke-linejoin:miter"
     transform="translate(-20.293951,-25.942704)" />
  <polyline
     points="521.28,342.085 519.046,342.085"
     id="polyline77"
     style="fill:none;stroke:#000000;stroke-width:0.5;stroke-linecap:butt;stroke-linejoin:miter"
     transform="translate(-20.293951,-25.942704)" />
  <polyline
     points="74.88,335.261 77.114,335.261"
     id="polyline79"
     style="fill:none;stroke:#000000;stroke-width:0.5;stroke-linecap:butt;stroke-linejoin:miter"
     transform="translate(-20.293951,-25.942704)" />
  <polyline
     points="521.28,335.261 519.046,335.261"
     id="polyline81"
     style="fill:none;stroke:#000000;stroke-width:0.5;stroke-linecap:butt;stroke-linejoin:miter"
     transform="translate(-20.293951,-25.942704)" />
  <polyline
     points="74.88,329.686 77.114,329.686"
     id="polyline83"
     style="fill:none;stroke:#000000;stroke-width:0.5;stroke-linecap:butt;stroke-linejoin:miter"
     transform="translate(-20.293951,-25.942704)" />
  <polyline
     points="521.28,329.686 519.046,329.686"
     id="polyline85"
     style="fill:none;stroke:#000000;stroke-width:0.5;stroke-linecap:butt;stroke-linejoin:miter"
     transform="translate(-20.293951,-25.942704)" />
  <polyline
     points="74.88,324.972 77.114,324.972"
     id="polyline87"
     style="fill:none;stroke:#000000;stroke-width:0.5;stroke-linecap:butt;stroke-linejoin:miter"
     transform="translate(-20.293951,-25.942704)" />
  <polyline
     points="521.28,324.972 519.046,324.972"
     id="polyline89"
     style="fill:none;stroke:#000000;stroke-width:0.5;stroke-linecap:butt;stroke-linejoin:miter"
     transform="translate(-20.293951,-25.942704)" />
  <polyline
     points="74.88,320.888 77.114,320.888"
     id="polyline91"
     style="fill:none;stroke:#000000;stroke-width:0.5;stroke-linecap:butt;stroke-linejoin:miter"
     transform="translate(-20.293951,-25.942704)" />
  <polyline
     points="521.28,320.888 519.046,320.888"
     id="polyline93"
     style="fill:none;stroke:#000000;stroke-width:0.5;stroke-linecap:butt;stroke-linejoin:miter"
     transform="translate(-20.293951,-25.942704)" />
  <polyline
     points="74.88,317.286 77.114,317.286"
     id="polyline95"
     style="fill:none;stroke:#000000;stroke-width:0.5;stroke-linecap:butt;stroke-linejoin:miter"
     transform="translate(-20.293951,-25.942704)" />
  <polyline
     points="521.28,317.286 519.046,317.286"
     id="polyline97"
     style="fill:none;stroke:#000000;stroke-width:0.5;stroke-linecap:butt;stroke-linejoin:miter"
     transform="translate(-20.293951,-25.942704)" />
  <polyline
     points="74.88,292.867 77.114,292.867"
     id="polyline99"
     style="fill:none;stroke:#000000;stroke-width:0.5;stroke-linecap:butt;stroke-linejoin:miter"
     transform="translate(-20.293951,-25.942704)" />
  <polyline
     points="521.28,292.867 519.046,292.867"
     id="polyline101"
     style="fill:none;stroke:#000000;stroke-width:0.5;stroke-linecap:butt;stroke-linejoin:miter"
     transform="translate(-20.293951,-25.942704)" />
  <polyline
     points="74.88,280.467 77.114,280.467"
     id="polyline103"
     style="fill:none;stroke:#000000;stroke-width:0.5;stroke-linecap:butt;stroke-linejoin:miter"
     transform="translate(-20.293951,-25.942704)" />
  <polyline
     points="521.28,280.467 519.046,280.467"
     id="polyline105"
     style="fill:none;stroke:#000000;stroke-width:0.5;stroke-linecap:butt;stroke-linejoin:miter"
     transform="translate(-20.293951,-25.942704)" />
  <polyline
     points="74.88,271.669 77.114,271.669"
     id="polyline107"
     style="fill:none;stroke:#000000;stroke-width:0.5;stroke-linecap:butt;stroke-linejoin:miter"
     transform="translate(-20.293951,-25.942704)" />
  <polyline
     points="521.28,271.669 519.046,271.669"
     id="polyline109"
     style="fill:none;stroke:#000000;stroke-width:0.5;stroke-linecap:butt;stroke-linejoin:miter"
     transform="translate(-20.293951,-25.942704)" />
  <polyline
     points="74.88,264.845 77.114,264.845"
     id="polyline111"
     style="fill:none;stroke:#000000;stroke-width:0.5;stroke-linecap:butt;stroke-linejoin:miter"
     transform="translate(-20.293951,-25.942704)" />
  <polyline
     points="521.28,264.845 519.046,264.845"
     id="polyline113"
     style="fill:none;stroke:#000000;stroke-width:0.5;stroke-linecap:butt;stroke-linejoin:miter"
     transform="translate(-20.293951,-25.942704)" />
  <polyline
     points="74.88,259.27 77.114,259.27"
     id="polyline115"
     style="fill:none;stroke:#000000;stroke-width:0.5;stroke-linecap:butt;stroke-linejoin:miter"
     transform="translate(-20.293951,-25.942704)" />
  <polyline
     points="521.28,259.27 519.046,259.27"
     id="polyline117"
     style="fill:none;stroke:#000000;stroke-width:0.5;stroke-linecap:butt;stroke-linejoin:miter"
     transform="translate(-20.293951,-25.942704)" />
  <polyline
     points="74.88,254.556 77.114,254.556"
     id="polyline119"
     style="fill:none;stroke:#000000;stroke-width:0.5;stroke-linecap:butt;stroke-linejoin:miter"
     transform="translate(-20.293951,-25.942704)" />
  <polyline
     points="521.28,254.556 519.046,254.556"
     id="polyline121"
     style="fill:none;stroke:#000000;stroke-width:0.5;stroke-linecap:butt;stroke-linejoin:miter"
     transform="translate(-20.293951,-25.942704)" />
  <polyline
     points="74.88,250.472 77.114,250.472"
     id="polyline123"
     style="fill:none;stroke:#000000;stroke-width:0.5;stroke-linecap:butt;stroke-linejoin:miter"
     transform="translate(-20.293951,-25.942704)" />
  <polyline
     points="521.28,250.472 519.046,250.472"
     id="polyline125"
     style="fill:none;stroke:#000000;stroke-width:0.5;stroke-linecap:butt;stroke-linejoin:miter"
     transform="translate(-20.293951,-25.942704)" />
  <polyline
     points="74.88,246.87 77.114,246.87"
     id="polyline127"
     style="fill:none;stroke:#000000;stroke-width:0.5;stroke-linecap:butt;stroke-linejoin:miter"
     transform="translate(-20.293951,-25.942704)" />
  <polyline
     points="521.28,246.87 519.046,246.87"
     id="polyline129"
     style="fill:none;stroke:#000000;stroke-width:0.5;stroke-linecap:butt;stroke-linejoin:miter"
     transform="translate(-20.293951,-25.942704)" />
  <polyline
     points="74.88,222.451 77.114,222.451"
     id="polyline131"
     style="fill:none;stroke:#000000;stroke-width:0.5;stroke-linecap:butt;stroke-linejoin:miter"
     transform="translate(-20.293951,-25.942704)" />
  <polyline
     points="521.28,222.451 519.046,222.451"
     id="polyline133"
     style="fill:none;stroke:#000000;stroke-width:0.5;stroke-linecap:butt;stroke-linejoin:miter"
     transform="translate(-20.293951,-25.942704)" />
  <polyline
     points="74.88,210.051 77.114,210.051"
     id="polyline135"
     style="fill:none;stroke:#000000;stroke-width:0.5;stroke-linecap:butt;stroke-linejoin:miter"
     transform="translate(-20.293951,-25.942704)" />
  <polyline
     points="521.28,210.051 519.046,210.051"
     id="polyline137"
     style="fill:none;stroke:#000000;stroke-width:0.5;stroke-linecap:butt;stroke-linejoin:miter"
     transform="translate(-20.293951,-25.942704)" />
  <polyline
     points="74.88,201.253 77.114,201.253"
     id="polyline139"
     style="fill:none;stroke:#000000;stroke-width:0.5;stroke-linecap:butt;stroke-linejoin:miter"
     transform="translate(-20.293951,-25.942704)" />
  <polyline
     points="521.28,201.253 519.046,201.253"
     id="polyline141"
     style="fill:none;stroke:#000000;stroke-width:0.5;stroke-linecap:butt;stroke-linejoin:miter"
     transform="translate(-20.293951,-25.942704)" />
  <polyline
     points="74.88,194.429 77.114,194.429"
     id="polyline143"
     style="fill:none;stroke:#000000;stroke-width:0.5;stroke-linecap:butt;stroke-linejoin:miter"
     transform="translate(-20.293951,-25.942704)" />
  <polyline
     points="521.28,194.429 519.046,194.429"
     id="polyline145"
     style="fill:none;stroke:#000000;stroke-width:0.5;stroke-linecap:butt;stroke-linejoin:miter"
     transform="translate(-20.293951,-25.942704)" />
  <polyline
     points="74.88,188.854 77.114,188.854"
     id="polyline147"
     style="fill:none;stroke:#000000;stroke-width:0.5;stroke-linecap:butt;stroke-linejoin:miter"
     transform="translate(-20.293951,-25.942704)" />
  <polyline
     points="521.28,188.854 519.046,188.854"
     id="polyline149"
     style="fill:none;stroke:#000000;stroke-width:0.5;stroke-linecap:butt;stroke-linejoin:miter"
     transform="translate(-20.293951,-25.942704)" />
  <polyline
     points="74.88,184.14 77.114,184.14"
     id="polyline151"
     style="fill:none;stroke:#000000;stroke-width:0.5;stroke-linecap:butt;stroke-linejoin:miter"
     transform="translate(-20.293951,-25.942704)" />
  <polyline
     points="521.28,184.14 519.046,184.14"
     id="polyline153"
     style="fill:none;stroke:#000000;stroke-width:0.5;stroke-linecap:butt;stroke-linejoin:miter"
     transform="translate(-20.293951,-25.942704)" />
  <polyline
     points="74.88,180.056 77.114,180.056"
     id="polyline155"
     style="fill:none;stroke:#000000;stroke-width:0.5;stroke-linecap:butt;stroke-linejoin:miter"
     transform="translate(-20.293951,-25.942704)" />
  <polyline
     points="521.28,180.056 519.046,180.056"
     id="polyline157"
     style="fill:none;stroke:#000000;stroke-width:0.5;stroke-linecap:butt;stroke-linejoin:miter"
     transform="translate(-20.293951,-25.942704)" />
  <polyline
     points="74.88,176.454 77.114,176.454"
     id="polyline159"
     style="fill:none;stroke:#000000;stroke-width:0.5;stroke-linecap:butt;stroke-linejoin:miter"
     transform="translate(-20.293951,-25.942704)" />
  <polyline
     points="521.28,176.454 519.046,176.454"
     id="polyline161"
     style="fill:none;stroke:#000000;stroke-width:0.5;stroke-linecap:butt;stroke-linejoin:miter"
     transform="translate(-20.293951,-25.942704)" />
  <polyline
     points="74.88,152.035 77.114,152.035"
     id="polyline163"
     style="fill:none;stroke:#000000;stroke-width:0.5;stroke-linecap:butt;stroke-linejoin:miter"
     transform="translate(-20.293951,-25.942704)" />
  <polyline
     points="521.28,152.035 519.046,152.035"
     id="polyline165"
     style="fill:none;stroke:#000000;stroke-width:0.5;stroke-linecap:butt;stroke-linejoin:miter"
     transform="translate(-20.293951,-25.942704)" />
  <polyline
     points="74.88,139.635 77.114,139.635"
     id="polyline167"
     style="fill:none;stroke:#000000;stroke-width:0.5;stroke-linecap:butt;stroke-linejoin:miter"
     transform="translate(-20.293951,-25.942704)" />
  <polyline
     points="521.28,139.635 519.046,139.635"
     id="polyline169"
     style="fill:none;stroke:#000000;stroke-width:0.5;stroke-linecap:butt;stroke-linejoin:miter"
     transform="translate(-20.293951,-25.942704)" />
  <polyline
     points="74.88,130.837 77.114,130.837"
     id="polyline171"
     style="fill:none;stroke:#000000;stroke-width:0.5;stroke-linecap:butt;stroke-linejoin:miter"
     transform="translate(-20.293951,-25.942704)" />
  <polyline
     points="521.28,130.837 519.046,130.837"
     id="polyline173"
     style="fill:none;stroke:#000000;stroke-width:0.5;stroke-linecap:butt;stroke-linejoin:miter"
     transform="translate(-20.293951,-25.942704)" />
  <polyline
     points="74.88,124.013 77.114,124.013"
     id="polyline175"
     style="fill:none;stroke:#000000;stroke-width:0.5;stroke-linecap:butt;stroke-linejoin:miter"
     transform="translate(-20.293951,-25.942704)" />
  <polyline
     points="521.28,124.013 519.046,124.013"
     id="polyline177"
     style="fill:none;stroke:#000000;stroke-width:0.5;stroke-linecap:butt;stroke-linejoin:miter"
     transform="translate(-20.293951,-25.942704)" />
  <polyline
     points="74.88,118.438 77.114,118.438"
     id="polyline179"
     style="fill:none;stroke:#000000;stroke-width:0.5;stroke-linecap:butt;stroke-linejoin:miter"
     transform="translate(-20.293951,-25.942704)" />
  <polyline
     points="521.28,118.438 519.046,118.438"
     id="polyline181"
     style="fill:none;stroke:#000000;stroke-width:0.5;stroke-linecap:butt;stroke-linejoin:miter"
     transform="translate(-20.293951,-25.942704)" />
  <polyline
     points="74.88,113.724 77.114,113.724"
     id="polyline183"
     style="fill:none;stroke:#000000;stroke-width:0.5;stroke-linecap:butt;stroke-linejoin:miter"
     transform="translate(-20.293951,-25.942704)" />
  <polyline
     points="521.28,113.724 519.046,113.724"
     id="polyline185"
     style="fill:none;stroke:#000000;stroke-width:0.5;stroke-linecap:butt;stroke-linejoin:miter"
     transform="translate(-20.293951,-25.942704)" />
  <polyline
     points="74.88,109.64 77.114,109.64"
     id="polyline187"
     style="fill:none;stroke:#000000;stroke-width:0.5;stroke-linecap:butt;stroke-linejoin:miter"
     transform="translate(-20.293951,-25.942704)" />
  <polyline
     points="521.28,109.64 519.046,109.64"
     id="polyline189"
     style="fill:none;stroke:#000000;stroke-width:0.5;stroke-linecap:butt;stroke-linejoin:miter"
     transform="translate(-20.293951,-25.942704)" />
  <polyline
     points="74.88,106.038 77.114,106.038"
     id="polyline191"
     style="fill:none;stroke:#000000;stroke-width:0.5;stroke-linecap:butt;stroke-linejoin:miter"
     transform="translate(-20.293951,-25.942704)" />
  <polyline
     points="521.28,106.038 519.046,106.038"
     id="polyline193"
     style="fill:none;stroke:#000000;stroke-width:0.5;stroke-linecap:butt;stroke-linejoin:miter"
     transform="translate(-20.293951,-25.942704)" />
  <polyline
     points="74.88,81.6187 77.114,81.6187"
     id="polyline195"
     style="fill:none;stroke:#000000;stroke-width:0.5;stroke-linecap:butt;stroke-linejoin:miter"
     transform="translate(-20.293951,-25.942704)" />
  <polyline
     points="521.28,81.6187 519.046,81.6187"
     id="polyline197"
     style="fill:none;stroke:#000000;stroke-width:0.5;stroke-linecap:butt;stroke-linejoin:miter"
     transform="translate(-20.293951,-25.942704)" />
  <polyline
     points="74.88,69.2191 77.114,69.2191"
     id="polyline199"
     style="fill:none;stroke:#000000;stroke-width:0.5;stroke-linecap:butt;stroke-linejoin:miter"
     transform="translate(-20.293951,-25.942704)" />
  <polyline
     points="521.28,69.2191 519.046,69.2191"
     id="polyline201"
     style="fill:none;stroke:#000000;stroke-width:0.5;stroke-linecap:butt;stroke-linejoin:miter"
     transform="translate(-20.293951,-25.942704)" />
  <polyline
     points="74.88,60.4214 77.114,60.4214"
     id="polyline203"
     style="fill:none;stroke:#000000;stroke-width:0.5;stroke-linecap:butt;stroke-linejoin:miter"
     transform="translate(-20.293951,-25.942704)" />
  <polyline
     points="521.28,60.4214 519.046,60.4214"
     id="polyline205"
     style="fill:none;stroke:#000000;stroke-width:0.5;stroke-linecap:butt;stroke-linejoin:miter"
     transform="translate(-20.293951,-25.942704)" />
  <polyline
     points="74.88,53.5974 77.114,53.5974"
     id="polyline207"
     style="fill:none;stroke:#000000;stroke-width:0.5;stroke-linecap:butt;stroke-linejoin:miter"
     transform="translate(-20.293951,-25.942704)" />
  <polyline
     points="521.28,53.5974 519.046,53.5974"
     id="polyline209"
     style="fill:none;stroke:#000000;stroke-width:0.5;stroke-linecap:butt;stroke-linejoin:miter"
     transform="translate(-20.293951,-25.942704)" />
  <polyline
     points="74.88,48.0217 77.114,48.0217"
     id="polyline211"
     style="fill:none;stroke:#000000;stroke-width:0.5;stroke-linecap:butt;stroke-linejoin:miter"
     transform="translate(-20.293951,-25.942704)" />
  <polyline
     points="521.28,48.0217 519.046,48.0217"
     id="polyline213"
     style="fill:none;stroke:#000000;stroke-width:0.5;stroke-linecap:butt;stroke-linejoin:miter"
     transform="translate(-20.293951,-25.942704)" />
  <polyline
     points="74.88,43.3076 77.114,43.3076"
     id="polyline215"
     style="fill:none;stroke:#000000;stroke-width:0.5;stroke-linecap:butt;stroke-linejoin:miter"
     transform="translate(-20.293951,-25.942704)" />
  <polyline
     points="521.28,43.3076 519.046,43.3076"
     id="polyline217"
     style="fill:none;stroke:#000000;stroke-width:0.5;stroke-linecap:butt;stroke-linejoin:miter"
     transform="translate(-20.293951,-25.942704)" />
  <polyline
     points="74.88,39.224 77.114,39.224"
     id="polyline219"
     style="fill:none;stroke:#000000;stroke-width:0.5;stroke-linecap:butt;stroke-linejoin:miter"
     transform="translate(-20.293951,-25.942704)" />
  <polyline
     points="521.28,39.224 519.046,39.224"
     id="polyline221"
     style="fill:none;stroke:#000000;stroke-width:0.5;stroke-linecap:butt;stroke-linejoin:miter"
     transform="translate(-20.293951,-25.942704)" />
  <polyline
     points="74.88,35.6221 77.114,35.6221"
     id="polyline223"
     style="fill:none;stroke:#000000;stroke-width:0.5;stroke-linecap:butt;stroke-linejoin:miter"
     transform="translate(-20.293951,-25.942704)" />
  <polyline
     points="521.28,35.6221 519.046,35.6221"
     id="polyline225"
     style="fill:none;stroke:#000000;stroke-width:0.5;stroke-linecap:butt;stroke-linejoin:miter"
     transform="translate(-20.293951,-25.942704)" />
  <polyline
     points="74.88,384.48 79.348,384.48"
     id="polyline227"
     style="fill:none;stroke:#000000;stroke-width:0.5;stroke-linecap:butt;stroke-linejoin:miter"
     transform="translate(-20.293951,-25.942704)" />
  <polyline
     points="521.28,384.48 516.812,384.48"
     id="polyline229"
     style="fill:none;stroke:#000000;stroke-width:0.5;stroke-linecap:butt;stroke-linejoin:miter"
     transform="translate(-20.293951,-25.942704)" />
  <polyline
     points="74.88,314.064 79.348,314.064"
     id="polyline231"
     style="fill:none;stroke:#000000;stroke-width:0.5;stroke-linecap:butt;stroke-linejoin:miter"
     transform="translate(-20.293951,-25.942704)" />
  <polyline
     points="521.28,314.064 516.812,314.064"
     id="polyline233"
     style="fill:none;stroke:#000000;stroke-width:0.5;stroke-linecap:butt;stroke-linejoin:miter"
     transform="translate(-20.293951,-25.942704)" />
  <polyline
     points="74.88,243.648 79.348,243.648"
     id="polyline235"
     style="fill:none;stroke:#000000;stroke-width:0.5;stroke-linecap:butt;stroke-linejoin:miter"
     transform="translate(-20.293951,-25.942704)" />
  <polyline
     points="521.28,243.648 516.812,243.648"
     id="polyline237"
     style="fill:none;stroke:#000000;stroke-width:0.5;stroke-linecap:butt;stroke-linejoin:miter"
     transform="translate(-20.293951,-25.942704)" />
  <polyline
     points="74.88,173.232 79.348,173.232"
     id="polyline239"
     style="fill:none;stroke:#000000;stroke-width:0.5;stroke-linecap:butt;stroke-linejoin:miter"
     transform="translate(-20.293951,-25.942704)" />
  <polyline
     points="521.28,173.232 516.812,173.232"
     id="polyline241"
     style="fill:none;stroke:#000000;stroke-width:0.5;stroke-linecap:butt;stroke-linejoin:miter"
     transform="translate(-20.293951,-25.942704)" />
  <polyline
     points="74.88,102.816 79.348,102.816"
     id="polyline243"
     style="fill:none;stroke:#000000;stroke-width:0.5;stroke-linecap:butt;stroke-linejoin:miter"
     transform="translate(-20.293951,-25.942704)" />
  <polyline
     points="521.28,102.816 516.812,102.816"
     id="polyline245"
     style="fill:none;stroke:#000000;stroke-width:0.5;stroke-linecap:butt;stroke-linejoin:miter"
     transform="translate(-20.293951,-25.942704)" />
  <polyline
     points="74.88,32.4 79.348,32.4"
     id="polyline247"
     style="fill:none;stroke:#000000;stroke-width:0.5;stroke-linecap:butt;stroke-linejoin:miter"
     transform="translate(-20.293951,-25.942704)" />
  <polyline
     points="521.28,32.4 516.812,32.4"
     id="polyline249"
     style="fill:none;stroke:#000000;stroke-width:0.5;stroke-linecap:butt;stroke-linejoin:miter"
     transform="translate(-20.293951,-25.942704)" />
  <text
     xml:space="preserve"
     font-weight="normal"
     font-style="normal"
     font-size="10"
     id="text255"
     style="font-style:normal;font-weight:normal;font-size:13px;font-family:FreeSans;fill:#000000;stroke-width:1.29999995"
     x="23.062948"
     y="368.55359"><tspan
       y="367.2536"
       x="23.062948 30.862947"
       id="tspan251"
       style="fill:#000000;stroke-width:1.29999995">10</tspan><tspan
       font-size="8"
       y="359.45358"
       x="38.662949 42.562954"
       id="tspan253"
       style="font-size:10.39999962px;fill:#000000;stroke-width:1.29999995">-5</tspan></text>
  <text
     xml:space="preserve"
     font-weight="normal"
     font-style="normal"
     font-size="10"
     id="text261"
     style="font-style:normal;font-weight:normal;font-size:13px;font-family:FreeSans;fill:#000000;stroke-width:1.29999995"
     x="23.054548"
     y="298.13757"><tspan
       y="296.83759"
       x="23.054548 30.854548"
       id="tspan257"
       style="fill:#000000;stroke-width:1.29999995">10</tspan><tspan
       font-size="8"
       y="289.03757"
       x="38.654549 42.554554"
       id="tspan259"
       style="font-size:10.39999962px;fill:#000000;stroke-width:1.29999995">-4</tspan></text>
  <text
     xml:space="preserve"
     font-weight="normal"
     font-style="normal"
     font-size="10"
     id="text267"
     style="font-style:normal;font-weight:normal;font-size:13px;font-family:FreeSans;fill:#000000;stroke-width:1.29999995"
     x="23.071348"
     y="227.72159"><tspan
       y="226.42159"
       x="23.071348 30.871347"
       id="tspan263"
       style="fill:#000000;stroke-width:1.29999995">10</tspan><tspan
       font-size="8"
       y="218.6216"
       x="38.671349 42.571354"
       id="tspan265"
       style="font-size:10.39999962px;fill:#000000;stroke-width:1.29999995">-3</tspan></text>
  <text
     xml:space="preserve"
     font-weight="normal"
     font-style="normal"
     font-size="10"
     id="text273"
     style="font-style:normal;font-weight:normal;font-size:13px;font-family:FreeSans;fill:#000000;stroke-width:1.29999995"
     x="23.065348"
     y="157.30559"><tspan
       y="156.00558"
       x="23.065348 30.865347"
       id="tspan269"
       style="fill:#000000;stroke-width:1.29999995">10</tspan><tspan
       font-size="8"
       y="148.2056"
       x="38.665352 42.565357"
       id="tspan271"
       style="font-size:10.39999962px;fill:#000000;stroke-width:1.29999995">-2</tspan></text>
  <text
     xml:space="preserve"
     font-weight="normal"
     font-style="normal"
     font-size="10"
     id="text279"
     style="font-style:normal;font-weight:normal;font-size:13px;font-family:FreeSans;fill:#000000;stroke-width:1.29999995"
     x="23.262148"
     y="86.889595"><tspan
       y="85.5896"
       x="23.262148 31.062147"
       id="tspan275"
       style="fill:#000000;stroke-width:1.29999995">10</tspan><tspan
       font-size="8"
       y="77.789597"
       x="38.862148 42.762157"
       id="tspan277"
       style="font-size:10.39999962px;fill:#000000;stroke-width:1.29999995">-1</tspan></text>
  <text
     xml:space="preserve"
     font-weight="normal"
     font-style="normal"
     font-size="10"
     id="text285"
     style="font-style:normal;font-weight:normal;font-size:13px;font-family:FreeSans;fill:#000000;stroke-width:1.29999995"
     x="26.520147"
     y="16.473598"><tspan
       y="15.173599"
       x="26.520147 34.320148"
       id="tspan281"
       style="fill:#000000;stroke-width:1.29999995">10</tspan><tspan
       font-size="8"
       y="7.3735995"
       x="42.120152"
       id="tspan283"
       style="font-size:10.39999962px;fill:#000000;stroke-width:1.29999995">0</tspan></text>
  <polyline
     points="74.88,384.48 521.28,384.48"
     id="polyline287"
     style="fill:none;stroke:#000000;stroke-width:0.5;stroke-linecap:square;stroke-linejoin:miter;stroke-dasharray:16, 0"
     transform="translate(-20.293951,-25.942704)" />
  <polyline
     points="74.88,32.4 521.28,32.4"
     id="polyline289"
     style="fill:none;stroke:#000000;stroke-width:0.5;stroke-linecap:square;stroke-linejoin:miter;stroke-dasharray:16, 0"
     transform="translate(-20.293951,-25.942704)" />
  <polyline
     points="74.88,384.48 74.88,32.4"
     id="polyline291"
     style="fill:none;stroke:#000000;stroke-width:0.5;stroke-linecap:square;stroke-linejoin:miter;stroke-dasharray:16, 0"
     transform="translate(-20.293951,-25.942704)" />
  <polyline
     points="521.28,384.48 521.28,32.4"
     id="polyline293"
     style="fill:none;stroke:#000000;stroke-width:0.5;stroke-linecap:square;stroke-linejoin:miter;stroke-dasharray:16, 0"
     transform="translate(-20.293951,-25.942704)" />
  <text
     xml:space="preserve"
     font-weight="normal"
     font-style="normal"
     font-size="11"
     id="text297"
     style="font-style:normal;font-weight:normal;font-size:14.30000019px;font-family:FreeSans;fill:#000000;stroke-width:1.29999995"
     x="273.89999"
     y="404.02762"><tspan
       y="401.42761"
       x="273.89999"
       id="tspan295"
       style="fill:#000000;stroke-width:1.29999995">n</tspan></text>
  <text
     xml:space="preserve"
     transform="rotate(-90)"
     font-weight="normal"
     font-style="normal"
     font-size="11"
     id="text301"
     style="font-style:normal;font-weight:normal;font-size:14.30000019px;font-family:FreeSans;fill:#000000;stroke-width:1.29999995"
     x="-224.6192"
     y="13.024698"><tspan
       y="10.4247"
       x="-224.6192 -216.8192 -210.3192 -202.5192 -198.6192 -194.71919 -192.1192 -180.4192 -172.6192 -168.71919 -163.5192 -151.8192 -145.3192"
       id="tspan299"
       style="fill:#000000;stroke-width:1.29999995">avg time (ms)</tspan></text>
  <polyline
     points="79.344,283.109 83.808,296.666 88.272,289.256 92.736,282.862 97.2,278.836 101.664,279.533 106.128,277.047 110.592,274.807 115.056,272.519 119.52,270.907 123.984,270.49 128.448,269.78 132.912,268.492 137.376,268.501 141.84,266.716 146.304,264.921 150.768,263.266 155.232,261.691 159.696,260.222 164.16,258.798 168.624,257.407 173.088,256.181 177.552,254.948 182.016,253.666 186.48,252.567 190.944,251.411 195.408,250.405 199.872,249.378 204.336,245.783 208.8,246.435 213.264,246.514 217.728,245.617 222.192,244.742 226.656,243.761 231.12,242.339 235.584,242.115 240.048,240.437 244.512,240.581 248.976,239.812 253.44,238.972 257.904,238.2 262.368,237.576 266.832,236.942 271.296,236.339 275.76,235.702 280.224,234.944 284.688,234.345 289.152,233.719 293.616,233.165 298.08,232.541 302.544,231.408 307.008,231.305 311.472,230.691 315.936,230.202 320.4,229.584 324.864,229.155 329.328,228.671 333.792,228.137 338.256,227.602 342.72,227.015 347.184,226.545 351.648,226.153 356.112,225.306 360.576,225.128 365.04,224.664 369.504,224.3 373.968,223.764 378.432,223.424 382.896,222.918 387.36,222.505 391.824,222.096 396.288,221.662 400.752,221.219 405.216,220.866 409.68,220.459 414.144,220.073 418.608,219.662 423.072,219.229 427.536,218.962 432,218.508 436.464,218.132 440.928,217.56 445.392,216.017 449.856,216.995 454.32,216.712 458.784,216.33 463.248,216 467.712,215.64 472.176,215.319 476.64,214.952 481.104,214.59 485.568,214.265 490.032,213.949 494.496,213.636 498.96,213.357 503.424,212.972 507.888,212.324 512.352,212.396 516.816,212.141"
     id="polyline303"
     style="fill:none;stroke:#0071bc;stroke-width:2;stroke-linecap:butt;stroke-linejoin:round"
     transform="translate(-20.293951,-25.942704)" />
  <polyline
     points="79.344,347.452 83.808,349.257 88.272,349.265 92.736,348.944 97.2,348.815 101.664,348.304 106.128,348.724 110.592,348.686 115.056,348.596 119.52,348.558 123.984,348.401 128.448,348.245 132.912,347.875 137.376,348 141.84,348.119 146.304,348.126 150.768,348.03 155.232,347.846 159.696,347.787 164.16,347.301 168.624,347.656 173.088,347.51 177.552,347.656 182.016,347.569 186.48,347.569 190.944,347.294 195.408,347.085 199.872,347.265 204.336,345.762 208.8,347.143 213.264,347.085 217.728,346.815 222.192,346.287 226.656,346.758 231.12,346.758 235.584,346.525 240.048,346.49 244.512,346.61 248.976,346.553 253.44,346.079 257.904,346.253 262.368,346.378 266.832,346.35 271.296,346.204 275.76,346.086 280.224,346.169 284.688,345.68 289.152,345.879 293.616,345.934 298.08,345.306 302.544,345.789 307.008,345.537 311.472,345.279 315.936,345.673 320.4,345.618 324.864,345.421 329.328,345.449 333.792,345.449 338.256,345.367 342.72,344.831 347.184,345.333 351.648,344.5 356.112,344.33 360.576,345.051 365.04,344.997 369.504,344.718 373.968,344.857 378.432,344.804 382.896,344.857 387.36,344.771 391.824,344.745 396.288,344.632 400.752,344.225 405.216,344.467 409.68,344.5 414.144,344.382 418.608,344.441 423.072,344.225 427.536,343.946 432,344.167 436.464,344.115 440.928,344.167 445.392,344.141 449.856,344.056 454.32,343.625 458.784,343.869 463.248,343.895 467.712,343.651 472.176,343.491 476.64,343.708 481.104,343.282 485.568,343.333 490.032,343.517 494.496,343.44 498.96,343.358 503.424,343.257 507.888,343.282 512.352,342.831 516.816,343.068"
     id="polyline305"
     style="fill:none;stroke:#d85218;stroke-width:2;stroke-linecap:butt;stroke-linejoin:round"
     transform="translate(-20.293951,-25.942704)" />
  <polyline
     points="79.344,336.87 83.808,333.383 88.272,333.557 92.736,333.251 97.2,333.269 101.664,333.346 106.128,333.21 110.592,332.983 115.056,333.192 119.52,333.038 123.984,332.777 128.448,332.495 132.912,332.625 137.376,332.683 141.84,332.473 146.304,331.452 150.768,331.85 155.232,332.015 159.696,331.902 164.16,331.217 168.624,331.508 173.088,331.469 177.552,331.077 182.016,330.828 186.48,331.039 190.944,330.794 195.408,330.706 199.872,330.389 204.336,330.064 208.8,330.15 213.264,329.904 217.728,329.298 222.192,329.414 226.656,329.414 231.12,328.929 235.584,328.747 240.048,328.85 244.512,328.357 248.976,328.373 253.44,328.033 257.904,327.727 262.368,327.587 266.832,327.617 271.296,326.693 275.76,326.895 280.224,326.619 284.688,325.935 289.152,326.067 293.616,325.842 298.08,325.163 302.544,324.916 307.008,325.09 311.472,324.421 315.936,324.153 320.4,324.126 324.864,323.507 329.328,322.986 333.792,323.175 338.256,322.508 342.72,322.205 347.184,322.139 351.648,320.877 356.112,320.599 360.576,320.977 365.04,319.727 369.504,319.482 373.968,318.913 378.432,318.655 382.896,318.404 387.36,318.382 391.824,317.399 396.288,317.616 400.752,317.42 405.216,315.966 409.68,316.239 414.144,316.151 418.608,315.804 423.072,315.377 427.536,315.241 432,314.433 436.464,314.32 440.928,314.168 445.392,313.56 449.856,313.417 454.32,313.41 458.784,312.351 463.248,312.282 467.712,312.119 472.176,311.523 476.64,311.121 481.104,311.011 485.568,310.328 490.032,310.182 494.496,309.729 498.96,309.377 503.424,309.288 507.888,309.236 512.352,308.117 516.816,307.991"
     id="polyline307"
     style="fill:none;stroke:#ecb01f;stroke-width:2;stroke-linecap:butt;stroke-linejoin:round"
     transform="translate(-20.293951,-25.942704)" />
  <polyline
     points="79.344,344.804 83.808,345.058 88.272,345.769 92.736,344.579 97.2,345.591 101.664,345.789 106.128,345.796 110.592,345.707 115.056,345.058 119.52,345.591 123.984,345.653 128.448,345.455 132.912,345.653 137.376,345.673 141.84,344.089 146.304,309.421 150.768,343.39 155.232,343.175 159.696,321.005 164.16,333.328 168.624,343.498 173.088,332.7 177.552,344.692 182.016,332.385 186.48,319.118 190.944,332.385 195.408,342.626 199.872,333.769 204.336,341.301 208.8,343.953 213.264,324.712 217.728,332.911 222.192,322.875 226.656,328.307 231.12,324.781 235.584,331.255 240.048,323.481 244.512,331.758 248.976,325.37 253.44,324.251 257.904,305.597 262.368,325.842 266.832,324.668 271.296,330.954 275.76,312.914 280.224,328.567 284.688,321.413 289.152,331.435 293.616,324.38 298.08,321.453 302.544,305.411 307.008,324.986 311.472,320.965 315.936,312.767 320.4,323.342 324.864,307.288 329.328,304.148 333.792,321.534 338.256,322.646 342.72,328.897 347.184,316.869 351.648,342.447 356.112,317.86 360.576,324.425 365.04,300.511 369.504,325.543 373.968,320.889 378.432,323.927 382.896,300.367 387.36,324.826 391.824,315.902 396.288,302.927 400.752,317.835 405.216,326.557 409.68,317.094 414.144,318.773 418.608,302.849 423.072,324.916 427.536,315.261 432,302.984 436.464,311.786 440.928,319.073 445.392,320.359 449.856,301.889 454.32,319.118 458.784,314.901 463.248,309.438 467.712,320.083 472.176,316.48 476.64,319.566 481.104,318.134 485.568,297.073 490.032,319.013 494.496,321.858 498.96,318.796 503.424,319.033 507.888,312.542 512.352,319.033 516.816,312.639"
     id="polyline309"
     style="fill:none;stroke:#7d2e8d;stroke-width:2;stroke-linecap:butt;stroke-linejoin:round"
     transform="translate(-20.293951,-25.942704)" />
  <polyline
     points="79.344,337.045 83.808,319.164 88.272,304.164 92.736,291.919 97.2,281.775 101.664,272.952 106.128,265.153 110.592,258.236 115.056,251.932 119.52,246.376 123.984,241.175 128.448,236.395 132.912,231.976 137.376,227.784 141.84,223.896 146.304,220.257 150.768,216.776 155.232,213.346 159.696,210.357 164.16,207.352 168.624,204.565 173.088,201.869 177.552,199.273 182.016,196.716 186.48,194.383 190.944,192.025 195.408,189.834 199.872,187.716 204.336,185.608 208.8,183.648 213.264,181.719 217.728,179.897 222.192,177.354 226.656,176.261 231.12,174.523 235.584,172.876 240.048,171.235 244.512,169.663 248.976,168.128 253.44,166.585 257.904,165.01 262.368,163.682 266.832,162.323 271.296,160.852 275.76,159.226 280.224,154.39 284.688,153.693 289.152,154.224 293.616,151.444 298.08,145.716 302.544,149.719 307.008,149.002 311.472,144.521 315.936,146.206 320.4,144.299 324.864,144.957 329.328,140.847 333.792,135.718 338.256,135.441 342.72,136.511 347.184,132.127 351.648,133.109 356.112,131.828 360.576,135.415 365.04,134.124 369.504,134.883 373.968,135.01 378.432,133.67 382.896,133.502 387.36,132.007 391.824,131.753 396.288,129.842 400.752,127.391 405.216,129.082 409.68,126.626 414.144,120.439 418.608,122.419 423.072,117.893 427.536,121.337 432,124.755 436.464,124.202 440.928,121.58 445.392,122.287 449.856,121.94 454.32,120.464 458.784,118.892 463.248,112.373 467.712,112.593 472.176,116.694 476.64,116.389 481.104,114.654 485.568,112.532 490.032,111.649 494.496,112.874 498.96,109.927 503.424,108.443 507.888,111.927 512.352,106.954 516.816,105.746"
     id="polyline311"
     style="fill:none;stroke:#76ab2f;stroke-width:2;stroke-linecap:butt;stroke-linejoin:round"
     transform="translate(-20.293951,-25.942704)" />
  <polyline
     points="79.344,315.431 83.808,308.015 88.272,291.608 92.736,280.589 97.2,268.755 101.664,260.826 106.128,246.583 110.592,237.315 115.056,229.012 119.52,219.291 123.984,215.351 128.448,209.503 132.912,202.418 137.376,200.124 141.84,195.655 146.304,189.138 150.768,184.213 155.232,181.045 159.696,173.75 164.16,168.482 168.624,164.657 173.088,166.413 177.552,161.708 182.016,160.222 186.48,157.448 190.944,155.23 195.408,152.54 199.872,149.525 204.336,143.573 208.8,137.674 213.264,138.729 217.728,136.699 222.192,137.564 226.656,134.871 231.12,131.836 235.584,131.25 240.048,130.055 244.512,126.147 248.976,125.943 253.44,123.726 257.904,117.694 262.368,119.007 266.832,120.109 271.296,117.865 275.76,117.527 280.224,115.68 284.688,111.005 289.152,110.371 293.616,108.222 298.08,108.849 302.544,104.095 307.008,103.748 311.472,105.113 315.936,105.285 320.4,101.692 324.864,100.737 329.328,95.6055 333.792,96.1805 338.256,98.7313 342.72,97.6793 347.184,93.4619 351.648,94.3378 356.112,93.574 360.576,94.1043 365.04,92.9696 369.504,91.3361 373.968,90.8341 378.432,89.8861 382.896,88.3338 387.36,88.0425 391.824,85.6685 396.288,85.7982 400.752,85.3467 405.216,84.1619 409.68,80.9691 414.144,82.6718 418.608,81.4873 423.072,80.4796 427.536,80.2666 432,78.5831 436.464,78.199 440.928,77.4751 445.392,76.0618 449.856,75.2297 454.32,74.5107 458.784,73.9658 463.248,72.0742 467.712,72.6518 472.176,71.4307 476.64,70.8931 481.104,70.5541 485.568,69.6531 490.032,68.1223 494.496,68.2155 498.96,67.2537 503.424,64.443 507.888,64.424 512.352,65.0868 516.816,60.2442"
     id="polyline313"
     style="fill:none;stroke:#4cbded;stroke-width:2;stroke-linecap:butt;stroke-linejoin:round"
     transform="translate(-20.293951,-25.942704)" />
  <g
     id="g756"
     transform="translate(-20.293951,-25.942704)">
    <polyline
       transform="translate(15,15)"
       style="fill:none;stroke:#000000;stroke-width:0.5;stroke-linecap:square;stroke-linejoin:miter;stroke-dasharray:16, 0"
       id="polyline325"
       points="77.6258,119.506 149.657,119.506" />
    <polyline
       transform="translate(15,15)"
       style="fill:none;stroke:#000000;stroke-width:0.5;stroke-linecap:square;stroke-linejoin:miter;stroke-dasharray:16, 0"
       id="polyline327"
       points="77.6258,35.1458 149.657,35.1458" />
    <polyline
       transform="translate(15,15)"
       style="fill:none;stroke:#000000;stroke-width:0.5;stroke-linecap:square;stroke-linejoin:miter;stroke-dasharray:16, 0"
       id="polyline329"
       points="77.6258,119.506 77.6258,35.1458" />
    <polyline
       transform="translate(15,15)"
       style="fill:none;stroke:#000000;stroke-width:0.5;stroke-linecap:square;stroke-linejoin:miter;stroke-dasharray:16, 0"
       id="polyline331"
       points="149.657,119.506 149.657,35.1458" />
    <text
       y="62.6759"
       x="118.711"
       style="font-style:normal;font-weight:normal;font-size:9px;font-family:FreeSans"
       id="text335"
       font-size="9"
       font-style="normal"
       font-weight="normal"
       xml:space="preserve"><tspan
         style="fill:#000000"
         id="tspan333"
         x="118.711 122.711 127.711 129.711 134.711 139.711 144.711 149.711 152.711"
         y="61.6759">ybincoeff</tspan></text>
    <text
       y="76.735901"
       x="118.711"
       style="font-style:normal;font-weight:normal;font-size:9px;font-family:FreeSans"
       id="text339"
       font-size="9"
       font-style="normal"
       font-weight="normal"
       xml:space="preserve"><tspan
         style="fill:#000000"
         id="tspan337"
         x="118.711 123.711 128.711 130.711 135.711 140.711 145.711 150.711 153.711"
         y="75.735901">gbincoeff</tspan></text>
    <text
       y="90.795998"
       x="118.711"
       style="font-style:normal;font-weight:normal;font-size:9px;font-family:FreeSans"
       id="text343"
       font-size="9"
       font-style="normal"
       font-weight="normal"
       xml:space="preserve"><tspan
         style="fill:#000000"
         id="tspan341"
         x="118.711 121.711 126.711 128.711 133.711 138.711 143.711 148.711 151.711"
         y="89.795998">fbincoeff</tspan></text>
    <text
       y="104.8561"
       x="118.711"
       style="font-style:normal;font-weight:normal;font-size:9px;font-family:FreeSans"
       id="text347"
       font-size="9"
       font-style="normal"
       font-weight="normal"
       xml:space="preserve"><tspan
         style="fill:#000000"
         id="tspan345"
         x="118.711 121.711 124.711 127.711 132.711 134.711 139.711 144.711 149.711 154.711 157.711"
         y="103.8561">fftbincoeff</tspan></text>
    <text
       y="118.916"
       x="118.711"
       style="font-style:normal;font-weight:normal;font-size:9px;font-family:FreeSans"
       id="text351"
       font-size="9"
       font-style="normal"
       font-weight="normal"
       xml:space="preserve"><tspan
         style="fill:#000000"
         id="tspan349"
         x="118.711 121.711 126.711 128.711 133.711 138.711 143.711 148.711 151.711"
         y="117.916">rbincoeff</tspan></text>
    <text
       y="132.976"
       x="118.711"
       style="font-style:normal;font-weight:normal;font-size:9px;font-family:FreeSans"
       id="text355"
       font-size="9"
       font-style="normal"
       font-weight="normal"
       xml:space="preserve"><tspan
         style="fill:#000000"
         id="tspan353"
         x="118.711 123.711 126.711 131.711 133.711 138.711 143.711 148.711 153.711 156.711"
         y="131.976">pfbincoeff</tspan></text>
    <polyline
       transform="translate(15,15)"
       style="fill:none;stroke:#0071bc;stroke-width:2;stroke-linecap:butt;stroke-linejoin:round"
       id="polyline357"
       points="80.3716,42.1758 100.965,42.1758" />
    <polyline
       transform="translate(15,15)"
       style="fill:none;stroke:#d85218;stroke-width:2;stroke-linecap:butt;stroke-linejoin:round"
       id="polyline359"
       points="80.3716,56.236 100.965,56.236" />
    <polyline
       transform="translate(15,15)"
       style="fill:none;stroke:#ecb01f;stroke-width:2;stroke-linecap:butt;stroke-linejoin:round"
       id="polyline361"
       points="80.3716,70.296 100.965,70.296" />
    <polyline
       transform="translate(15,15)"
       style="fill:none;stroke:#7d2e8d;stroke-width:2;stroke-linecap:butt;stroke-linejoin:round"
       id="polyline363"
       points="80.3716,84.3561 100.965,84.3561" />
    <polyline
       transform="translate(15,15)"
       style="fill:none;stroke:#76ab2f;stroke-width:2;stroke-linecap:butt;stroke-linejoin:round"
       id="polyline365"
       points="80.3716,98.4162 100.965,98.4162" />
    <polyline
       transform="translate(15,15)"
       style="fill:none;stroke:#4cbded;stroke-width:2;stroke-linecap:butt;stroke-linejoin:round"
       id="polyline367"
       points="80.3716,112.476 100.965,112.476" />
  </g>
</svg>
