<?xml version="1.0" encoding="UTF-8" standalone="no"?>
<svg
   xmlns:dc="http://purl.org/dc/elements/1.1/"
   xmlns:cc="http://creativecommons.org/ns#"
   xmlns:rdf="http://www.w3.org/1999/02/22-rdf-syntax-ns#"
   xmlns:svg="http://www.w3.org/2000/svg"
   xmlns="http://www.w3.org/2000/svg"
   xmlns:sodipodi="http://sodipodi.sourceforge.net/DTD/sodipodi-0.dtd"
   xmlns:inkscape="http://www.inkscape.org/namespaces/inkscape"
   width="511.46356pt"
   height="401.42761pt"
   viewBox="0 0 511.46356 401.42761"
   version="1.1"
   id="svg373"
   sodipodi:docname="benchmarck.svg"
   inkscape:version="0.92.3 (2405546, 2018-03-11)">
  <metadata
     id="metadata377">
    <rdf:RDF>
      <cc:Work
         rdf:about="">
        <dc:format>image/svg+xml</dc:format>
        <dc:type
           rdf:resource="http://purl.org/dc/dcmitype/StillImage" />
        <dc:title>gl2ps_renderer figure</dc:title>
      </cc:Work>
    </rdf:RDF>
  </metadata>
  <sodipodi:namedview
     pagecolor="#ffffff"
     bordercolor="#666666"
     borderopacity="1"
     objecttolerance="10"
     gridtolerance="10"
     guidetolerance="10"
     inkscape:pageopacity="0"
     inkscape:pageshadow="2"
     inkscape:window-width="1270"
     inkscape:window-height="699"
     id="namedview375"
     showgrid="false"
     fit-margin-top="0"
     fit-margin-left="0"
     fit-margin-right="0"
     fit-margin-bottom="0"
     inkscape:zoom="3.799183"
     inkscape:cx="140.98671"
     inkscape:cy="446.0307"
     inkscape:window-x="0"
     inkscape:window-y="27"
     inkscape:window-maximized="0"
     inkscape:current-layer="svg373" />
  <title
     id="title2">gl2ps_renderer figure</title>
  <desc
     id="desc4">
Creator: GL2PS 1.4.0, (C) 1999-2017 C. Geuzaine
For: Octave
CreationDate: Thu May 16 14:06:36 2019
</desc>
  <defs
     id="defs6">
    <clipPath
       id="cp00576432">
      <polygon
         id="polygon12"
         points="576,432 576,0 0,0 0,432 " />
    </clipPath>
    <clipPath
       id="clipPath319">
      <polygon
         id="polygon317"
         points="576,432 576,0 0,0 0,432 " />
    </clipPath>
  </defs>
  <polyline
     points="74.88,384.48 74.88,380.015"
     id="polyline19"
     style="fill:none;stroke:#000000;stroke-width:0.5;stroke-linecap:butt;stroke-linejoin:miter"
     transform="translate(-20.293951,-25.942704)" />
  <polyline
     points="74.88,32.4 74.88,36.865"
     id="polyline21"
     style="fill:none;stroke:#000000;stroke-width:0.5;stroke-linecap:butt;stroke-linejoin:miter"
     transform="translate(-20.293951,-25.942704)" />
  <polyline
     points="164.16,384.48 164.16,380.015"
     id="polyline23"
     style="fill:none;stroke:#000000;stroke-width:0.5;stroke-linecap:butt;stroke-linejoin:miter"
     transform="translate(-20.293951,-25.942704)" />
  <polyline
     points="164.16,32.4 164.16,36.865"
     id="polyline25"
     style="fill:none;stroke:#000000;stroke-width:0.5;stroke-linecap:butt;stroke-linejoin:miter"
     transform="translate(-20.293951,-25.942704)" />
  <polyline
     points="253.44,384.48 253.44,380.015"
     id="polyline27"
     style="fill:none;stroke:#000000;stroke-width:0.5;stroke-linecap:butt;stroke-linejoin:miter"
     transform="translate(-20.293951,-25.942704)" />
  <polyline
     points="253.44,32.4 253.44,36.865"
     id="polyline29"
     style="fill:none;stroke:#000000;stroke-width:0.5;stroke-linecap:butt;stroke-linejoin:miter"
     transform="translate(-20.293951,-25.942704)" />
  <polyline
     points="342.72,384.48 342.72,380.015"
     id="polyline31"
     style="fill:none;stroke:#000000;stroke-width:0.5;stroke-linecap:butt;stroke-linejoin:miter"
     transform="translate(-20.293951,-25.942704)" />
  <polyline
     points="342.72,32.4 342.72,36.865"
     id="polyline33"
     style="fill:none;stroke:#000000;stroke-width:0.5;stroke-linecap:butt;stroke-linejoin:miter"
     transform="translate(-20.293951,-25.942704)" />
  <polyline
     points="432,384.48 432,380.015"
     id="polyline35"
     style="fill:none;stroke:#000000;stroke-width:0.5;stroke-linecap:butt;stroke-linejoin:miter"
     transform="translate(-20.293951,-25.942704)" />
  <polyline
     points="432,32.4 432,36.865"
     id="polyline37"
     style="fill:none;stroke:#000000;stroke-width:0.5;stroke-linecap:butt;stroke-linejoin:miter"
     transform="translate(-20.293951,-25.942704)" />
  <polyline
     points="521.28,384.48 521.28,380.015"
     id="polyline39"
     style="fill:none;stroke:#000000;stroke-width:0.5;stroke-linecap:butt;stroke-linejoin:miter"
     transform="translate(-20.293951,-25.942704)" />
  <polyline
     points="521.28,32.4 521.28,36.865"
     id="polyline41"
     style="fill:none;stroke:#000000;stroke-width:0.5;stroke-linecap:butt;stroke-linejoin:miter"
     transform="translate(-20.293951,-25.942704)" />
  <text
     xml:space="preserve"
     font-weight="normal"
     font-style="normal"
     font-size="10"
     id="text45"
     style="font-style:normal;font-weight:normal;font-size:13px;font-family:FreeSans;fill:#000000;stroke-width:1.29999995"
     x="50.761051"
     y="377.36728"><tspan
       y="376.06726"
       x="50.761051"
       id="tspan43"
       style="fill:#000000;stroke-width:1.29999995">0</tspan></text>
  <text
     xml:space="preserve"
     font-weight="normal"
     font-style="normal"
     font-size="10"
     id="text49"
     style="font-style:normal;font-weight:normal;font-size:13px;font-family:FreeSans;fill:#000000;stroke-width:1.29999995"
     x="136.15456"
     y="377.36728"><tspan
       y="376.06726"
       x="136.15456 143.95456"
       id="tspan47"
       style="fill:#000000;stroke-width:1.29999995">20</tspan></text>
  <text
     xml:space="preserve"
     font-weight="normal"
     font-style="normal"
     font-size="10"
     id="text53"
     style="font-style:normal;font-weight:normal;font-size:13px;font-family:FreeSans;fill:#000000;stroke-width:1.29999995"
     x="225.44356"
     y="377.36728"><tspan
       y="376.06726"
       x="225.44356 233.24356"
       id="tspan51"
       style="fill:#000000;stroke-width:1.29999995">40</tspan></text>
  <text
     xml:space="preserve"
     font-weight="normal"
     font-style="normal"
     font-size="10"
     id="text57"
     style="font-style:normal;font-weight:normal;font-size:13px;font-family:FreeSans;fill:#000000;stroke-width:1.29999995"
     x="314.70105"
     y="377.36728"><tspan
       y="376.06726"
       x="314.70105 322.50107"
       id="tspan55"
       style="fill:#000000;stroke-width:1.29999995">60</tspan></text>
  <text
     xml:space="preserve"
     font-weight="normal"
     font-style="normal"
     font-size="10"
     id="text61"
     style="font-style:normal;font-weight:normal;font-size:13px;font-family:FreeSans;fill:#000000;stroke-width:1.29999995"
     x="403.99005"
     y="377.36728"><tspan
       y="376.06726"
       x="403.99005 411.79007"
       id="tspan59"
       style="fill:#000000;stroke-width:1.29999995">80</tspan></text>
  <text
     xml:space="preserve"
     font-weight="normal"
     font-style="normal"
     font-size="10"
     id="text65"
     style="font-style:normal;font-weight:normal;font-size:13px;font-family:FreeSans;fill:#000000;stroke-width:1.29999995"
     x="489.27258"
     y="377.36728"><tspan
       y="376.06726"
       x="489.27258 497.07257 504.87256"
       id="tspan63"
       style="fill:#000000;stroke-width:1.29999995">100</tspan></text>
  <polyline
     points="74.88,363.283 77.114,363.283"
     id="polyline67"
     style="fill:none;stroke:#000000;stroke-width:0.5;stroke-linecap:butt;stroke-linejoin:miter"
     transform="translate(-20.293951,-25.942704)" />
  <polyline
     points="521.28,363.283 519.046,363.283"
     id="polyline69"
     style="fill:none;stroke:#000000;stroke-width:0.5;stroke-linecap:butt;stroke-linejoin:miter"
     transform="translate(-20.293951,-25.942704)" />
  <polyline
     points="74.88,350.883 77.114,350.883"
     id="polyline71"
     style="fill:none;stroke:#000000;stroke-width:0.5;stroke-linecap:butt;stroke-linejoin:miter"
     transform="translate(-20.293951,-25.942704)" />
  <polyline
     points="521.28,350.883 519.046,350.883"
     id="polyline73"
     style="fill:none;stroke:#000000;stroke-width:0.5;stroke-linecap:butt;stroke-linejoin:miter"
     transform="translate(-20.293951,-25.942704)" />
  <polyline
     points="74.88,342.085 77.114,342.085"
     id="polyline75"
     style="fill:none;stroke:#000000;stroke-width:0.5;stroke-linecap:butt;stroke-linejoin:miter"
     transform="translate(-20.293951,-25.942704)" />
  <polyline
     points="521.28,342.085 519.046,342.085"
     id="polyline77"
     style="fill:none;stroke:#000000;stroke-width:0.5;stroke-linecap:butt;stroke-linejoin:miter"
     transform="translate(-20.293951,-25.942704)" />
  <polyline
     points="74.88,335.261 77.114,335.261"
     id="polyline79"
     style="fill:none;stroke:#000000;stroke-width:0.5;stroke-linecap:butt;stroke-linejoin:miter"
     transform="translate(-20.293951,-25.942704)" />
  <polyline
     points="521.28,335.261 519.046,335.261"
     id="polyline81"
     style="fill:none;stroke:#000000;stroke-width:0.5;stroke-linecap:butt;stroke-linejoin:miter"
     transform="translate(-20.293951,-25.942704)" />
  <polyline
     points="74.88,329.686 77.114,329.686"
     id="polyline83"
     style="fill:none;stroke:#000000;stroke-width:0.5;stroke-linecap:butt;stroke-linejoin:miter"
     transform="translate(-20.293951,-25.942704)" />
  <polyline
     points="521.28,329.686 519.046,329.686"
     id="polyline85"
     style="fill:none;stroke:#000000;stroke-width:0.5;stroke-linecap:butt;stroke-linejoin:miter"
     transform="translate(-20.293951,-25.942704)" />
  <polyline
     points="74.88,324.972 77.114,324.972"
     id="polyline87"
     style="fill:none;stroke:#000000;stroke-width:0.5;stroke-linecap:butt;stroke-linejoin:miter"
     transform="translate(-20.293951,-25.942704)" />
  <polyline
     points="521.28,324.972 519.046,324.972"
     id="polyline89"
     style="fill:none;stroke:#000000;stroke-width:0.5;stroke-linecap:butt;stroke-linejoin:miter"
     transform="translate(-20.293951,-25.942704)" />
  <polyline
     points="74.88,320.888 77.114,320.888"
     id="polyline91"
     style="fill:none;stroke:#000000;stroke-width:0.5;stroke-linecap:butt;stroke-linejoin:miter"
     transform="translate(-20.293951,-25.942704)" />
  <polyline
     points="521.28,320.888 519.046,320.888"
     id="polyline93"
     style="fill:none;stroke:#000000;stroke-width:0.5;stroke-linecap:butt;stroke-linejoin:miter"
     transform="translate(-20.293951,-25.942704)" />
  <polyline
     points="74.88,317.286 77.114,317.286"
     id="polyline95"
     style="fill:none;stroke:#000000;stroke-width:0.5;stroke-linecap:butt;stroke-linejoin:miter"
     transform="translate(-20.293951,-25.942704)" />
  <polyline
     points="521.28,317.286 519.046,317.286"
     id="polyline97"
     style="fill:none;stroke:#000000;stroke-width:0.5;stroke-linecap:butt;stroke-linejoin:miter"
     transform="translate(-20.293951,-25.942704)" />
  <polyline
     points="74.88,292.867 77.114,292.867"
     id="polyline99"
     style="fill:none;stroke:#000000;stroke-width:0.5;stroke-linecap:butt;stroke-linejoin:miter"
     transform="translate(-20.293951,-25.942704)" />
  <polyline
     points="521.28,292.867 519.046,292.867"
     id="polyline101"
     style="fill:none;stroke:#000000;stroke-width:0.5;stroke-linecap:butt;stroke-linejoin:miter"
     transform="translate(-20.293951,-25.942704)" />
  <polyline
     points="74.88,280.467 77.114,280.467"
     id="polyline103"
     style="fill:none;stroke:#000000;stroke-width:0.5;stroke-linecap:butt;stroke-linejoin:miter"
     transform="translate(-20.293951,-25.942704)" />
  <polyline
     points="521.28,280.467 519.046,280.467"
     id="polyline105"
     style="fill:none;stroke:#000000;stroke-width:0.5;stroke-linecap:butt;stroke-linejoin:miter"
     transform="translate(-20.293951,-25.942704)" />
  <polyline
     points="74.88,271.669 77.114,271.669"
     id="polyline107"
     style="fill:none;stroke:#000000;stroke-width:0.5;stroke-linecap:butt;stroke-linejoin:miter"
     transform="translate(-20.293951,-25.942704)" />
  <polyline
     points="521.28,271.669 519.046,271.669"
     id="polyline109"
     style="fill:none;stroke:#000000;stroke-width:0.5;stroke-linecap:butt;stroke-linejoin:miter"
     transform="translate(-20.293951,-25.942704)" />
  <polyline
     points="74.88,264.845 77.114,264.845"
     id="polyline111"
     style="fill:none;stroke:#000000;stroke-width:0.5;stroke-linecap:butt;stroke-linejoin:miter"
     transform="translate(-20.293951,-25.942704)" />
  <polyline
     points="521.28,264.845 519.046,264.845"
     id="polyline113"
     style="fill:none;stroke:#000000;stroke-width:0.5;stroke-linecap:butt;stroke-linejoin:miter"
     transform="translate(-20.293951,-25.942704)" />
  <polyline
     points="74.88,259.27 77.114,259.27"
     id="polyline115"
     style="fill:none;stroke:#000000;stroke-width:0.5;stroke-linecap:butt;stroke-linejoin:miter"
     transform="translate(-20.293951,-25.942704)" />
  <polyline
     points="521.28,259.27 519.046,259.27"
     id="polyline117"
     style="fill:none;stroke:#000000;stroke-width:0.5;stroke-linecap:butt;stroke-linejoin:miter"
     transform="translate(-20.293951,-25.942704)" />
  <polyline
     points="74.88,254.556 77.114,254.556"
     id="polyline119"
     style="fill:none;stroke:#000000;stroke-width:0.5;stroke-linecap:butt;stroke-linejoin:miter"
     transform="translate(-20.293951,-25.942704)" />
  <polyline
     points="521.28,254.556 519.046,254.556"
     id="polyline121"
     style="fill:none;stroke:#000000;stroke-width:0.5;stroke-linecap:butt;stroke-linejoin:miter"
     transform="translate(-20.293951,-25.942704)" />
  <polyline
     points="74.88,250.472 77.114,250.472"
     id="polyline123"
     style="fill:none;stroke:#000000;stroke-width:0.5;stroke-linecap:butt;stroke-linejoin:miter"
     transform="translate(-20.293951,-25.942704)" />
  <polyline
     points="521.28,250.472 519.046,250.472"
     id="polyline125"
     style="fill:none;stroke:#000000;stroke-width:0.5;stroke-linecap:butt;stroke-linejoin:miter"
     transform="translate(-20.293951,-25.942704)" />
  <polyline
     points="74.88,246.87 77.114,246.87"
     id="polyline127"
     style="fill:none;stroke:#000000;stroke-width:0.5;stroke-linecap:butt;stroke-linejoin:miter"
     transform="translate(-20.293951,-25.942704)" />
  <polyline
     points="521.28,246.87 519.046,246.87"
     id="polyline129"
     style="fill:none;stroke:#000000;stroke-width:0.5;stroke-linecap:butt;stroke-linejoin:miter"
     transform="translate(-20.293951,-25.942704)" />
  <polyline
     points="74.88,222.451 77.114,222.451"
     id="polyline131"
     style="fill:none;stroke:#000000;stroke-width:0.5;stroke-linecap:butt;stroke-linejoin:miter"
     transform="translate(-20.293951,-25.942704)" />
  <polyline
     points="521.28,222.451 519.046,222.451"
     id="polyline133"
     style="fill:none;stroke:#000000;stroke-width:0.5;stroke-linecap:butt;stroke-linejoin:miter"
     transform="translate(-20.293951,-25.942704)" />
  <polyline
     points="74.88,210.051 77.114,210.051"
     id="polyline135"
     style="fill:none;stroke:#000000;stroke-width:0.5;stroke-linecap:butt;stroke-linejoin:miter"
     transform="translate(-20.293951,-25.942704)" />
  <polyline
     points="521.28,210.051 519.046,210.051"
     id="polyline137"
     style="fill:none;stroke:#000000;stroke-width:0.5;stroke-linecap:butt;stroke-linejoin:miter"
     transform="translate(-20.293951,-25.942704)" />
  <polyline
     points="74.88,201.253 77.114,201.253"
     id="polyline139"
     style="fill:none;stroke:#000000;stroke-width:0.5;stroke-linecap:butt;stroke-linejoin:miter"
     transform="translate(-20.293951,-25.942704)" />
  <polyline
     points="521.28,201.253 519.046,201.253"
     id="polyline141"
     style="fill:none;stroke:#000000;stroke-width:0.5;stroke-linecap:butt;stroke-linejoin:miter"
     transform="translate(-20.293951,-25.942704)" />
  <polyline
     points="74.88,194.429 77.114,194.429"
     id="polyline143"
     style="fill:none;stroke:#000000;stroke-width:0.5;stroke-linecap:butt;stroke-linejoin:miter"
     transform="translate(-20.293951,-25.942704)" />
  <polyline
     points="521.28,194.429 519.046,194.429"
     id="polyline145"
     style="fill:none;stroke:#000000;stroke-width:0.5;stroke-linecap:butt;stroke-linejoin:miter"
     transform="translate(-20.293951,-25.942704)" />
  <polyline
     points="74.88,188.854 77.114,188.854"
     id="polyline147"
     style="fill:none;stroke:#000000;stroke-width:0.5;stroke-linecap:butt;stroke-linejoin:miter"
     transform="translate(-20.293951,-25.942704)" />
  <polyline
     points="521.28,188.854 519.046,188.854"
     id="polyline149"
     style="fill:none;stroke:#000000;stroke-width:0.5;stroke-linecap:butt;stroke-linejoin:miter"
     transform="translate(-20.293951,-25.942704)" />
  <polyline
     points="74.88,184.14 77.114,184.14"
     id="polyline151"
     style="fill:none;stroke:#000000;stroke-width:0.5;stroke-linecap:butt;stroke-linejoin:miter"
     transform="translate(-20.293951,-25.942704)" />
  <polyline
     points="521.28,184.14 519.046,184.14"
     id="polyline153"
     style="fill:none;stroke:#000000;stroke-width:0.5;stroke-linecap:butt;stroke-linejoin:miter"
     transform="translate(-20.293951,-25.942704)" />
  <polyline
     points="74.88,180.056 77.114,180.056"
     id="polyline155"
     style="fill:none;stroke:#000000;stroke-width:0.5;stroke-linecap:butt;stroke-linejoin:miter"
     transform="translate(-20.293951,-25.942704)" />
  <polyline
     points="521.28,180.056 519.046,180.056"
     id="polyline157"
     style="fill:none;stroke:#000000;stroke-width:0.5;stroke-linecap:butt;stroke-linejoin:miter"
     transform="translate(-20.293951,-25.942704)" />
  <polyline
     points="74.88,176.454 77.114,176.454"
     id="polyline159"
     style="fill:none;stroke:#000000;stroke-width:0.5;stroke-linecap:butt;stroke-linejoin:miter"
     transform="translate(-20.293951,-25.942704)" />
  <polyline
     points="521.28,176.454 519.046,176.454"
     id="polyline161"
     style="fill:none;stroke:#000000;stroke-width:0.5;stroke-linecap:butt;stroke-linejoin:miter"
     transform="translate(-20.293951,-25.942704)" />
  <polyline
     points="74.88,152.035 77.114,152.035"
     id="polyline163"
     style="fill:none;stroke:#000000;stroke-width:0.5;stroke-linecap:butt;stroke-linejoin:miter"
     transform="translate(-20.293951,-25.942704)" />
  <polyline
     points="521.28,152.035 519.046,152.035"
     id="polyline165"
     style="fill:none;stroke:#000000;stroke-width:0.5;stroke-linecap:butt;stroke-linejoin:miter"
     transform="translate(-20.293951,-25.942704)" />
  <polyline
     points="74.88,139.635 77.114,139.635"
     id="polyline167"
     style="fill:none;stroke:#000000;stroke-width:0.5;stroke-linecap:butt;stroke-linejoin:miter"
     transform="translate(-20.293951,-25.942704)" />
  <polyline
     points="521.28,139.635 519.046,139.635"
     id="polyline169"
     style="fill:none;stroke:#000000;stroke-width:0.5;stroke-linecap:butt;stroke-linejoin:miter"
     transform="translate(-20.293951,-25.942704)" />
  <polyline
     points="74.88,130.837 77.114,130.837"
     id="polyline171"
     style="fill:none;stroke:#000000;stroke-width:0.5;stroke-linecap:butt;stroke-linejoin:miter"
     transform="translate(-20.293951,-25.942704)" />
  <polyline
     points="521.28,130.837 519.046,130.837"
     id="polyline173"
     style="fill:none;stroke:#000000;stroke-width:0.5;stroke-linecap:butt;stroke-linejoin:miter"
     transform="translate(-20.293951,-25.942704)" />
  <polyline
     points="74.88,124.013 77.114,124.013"
     id="polyline175"
     style="fill:none;stroke:#000000;stroke-width:0.5;stroke-linecap:butt;stroke-linejoin:miter"
     transform="translate(-20.293951,-25.942704)" />
  <polyline
     points="521.28,124.013 519.046,124.013"
     id="polyline177"
     style="fill:none;stroke:#000000;stroke-width:0.5;stroke-linecap:butt;stroke-linejoin:miter"
     transform="translate(-20.293951,-25.942704)" />
  <polyline
     points="74.88,118.438 77.114,118.438"
     id="polyline179"
     style="fill:none;stroke:#000000;stroke-width:0.5;stroke-linecap:butt;stroke-linejoin:miter"
     transform="translate(-20.293951,-25.942704)" />
  <polyline
     points="521.28,118.438 519.046,118.438"
     id="polyline181"
     style="fill:none;stroke:#000000;stroke-width:0.5;stroke-linecap:butt;stroke-linejoin:miter"
     transform="translate(-20.293951,-25.942704)" />
  <polyline
     points="74.88,113.724 77.114,113.724"
     id="polyline183"
     style="fill:none;stroke:#000000;stroke-width:0.5;stroke-linecap:butt;stroke-linejoin:miter"
     transform="translate(-20.293951,-25.942704)" />
  <polyline
     points="521.28,113.724 519.046,113.724"
     id="polyline185"
     style="fill:none;stroke:#000000;stroke-width:0.5;stroke-linecap:butt;stroke-linejoin:miter"
     transform="translate(-20.293951,-25.942704)" />
  <polyline
     points="74.88,109.64 77.114,109.64"
     id="polyline187"
     style="fill:none;stroke:#000000;stroke-width:0.5;stroke-linecap:butt;stroke-linejoin:miter"
     transform="translate(-20.293951,-25.942704)" />
  <polyline
     points="521.28,109.64 519.046,109.64"
     id="polyline189"
     style="fill:none;stroke:#000000;stroke-width:0.5;stroke-linecap:butt;stroke-linejoin:miter"
     transform="translate(-20.293951,-25.942704)" />
  <polyline
     points="74.88,106.038 77.114,106.038"
     id="polyline191"
     style="fill:none;stroke:#000000;stroke-width:0.5;stroke-linecap:butt;stroke-linejoin:miter"
     transform="translate(-20.293951,-25.942704)" />
  <polyline
     points="521.28,106.038 519.046,106.038"
     id="polyline193"
     style="fill:none;stroke:#000000;stroke-width:0.5;stroke-linecap:butt;stroke-linejoin:miter"
     transform="translate(-20.293951,-25.942704)" />
  <polyline
     points="74.88,81.6187 77.114,81.6187"
     id="polyline195"
     style="fill:none;stroke:#000000;stroke-width:0.5;stroke-linecap:butt;stroke-linejoin:miter"
     transform="translate(-20.293951,-25.942704)" />
  <polyline
     points="521.28,81.6187 519.046,81.6187"
     id="polyline197"
     style="fill:none;stroke:#000000;stroke-width:0.5;stroke-linecap:butt;stroke-linejoin:miter"
     transform="translate(-20.293951,-25.942704)" />
  <polyline
     points="74.88,69.2191 77.114,69.2191"
     id="polyline199"
     style="fill:none;stroke:#000000;stroke-width:0.5;stroke-linecap:butt;stroke-linejoin:miter"
     transform="translate(-20.293951,-25.942704)" />
  <polyline
     points="521.28,69.2191 519.046,69.2191"
     id="polyline201"
     style="fill:none;stroke:#000000;stroke-width:0.5;stroke-linecap:butt;stroke-linejoin:miter"
     transform="translate(-20.293951,-25.942704)" />
  <polyline
     points="74.88,60.4214 77.114,60.4214"
     id="polyline203"
     style="fill:none;stroke:#000000;stroke-width:0.5;stroke-linecap:butt;stroke-linejoin:miter"
     transform="translate(-20.293951,-25.942704)" />
  <polyline
     points="521.28,60.4214 519.046,60.4214"
     id="polyline205"
     style="fill:none;stroke:#000000;stroke-width:0.5;stroke-linecap:butt;stroke-linejoin:miter"
     transform="translate(-20.293951,-25.942704)" />
  <polyline
     points="74.88,53.5974 77.114,53.5974"
     id="polyline207"
     style="fill:none;stroke:#000000;stroke-width:0.5;stroke-linecap:butt;stroke-linejoin:miter"
     transform="translate(-20.293951,-25.942704)" />
  <polyline
     points="521.28,53.5974 519.046,53.5974"
     id="polyline209"
     style="fill:none;stroke:#000000;stroke-width:0.5;stroke-linecap:butt;stroke-linejoin:miter"
     transform="translate(-20.293951,-25.942704)" />
  <polyline
     points="74.88,48.0217 77.114,48.0217"
     id="polyline211"
     style="fill:none;stroke:#000000;stroke-width:0.5;stroke-linecap:butt;stroke-linejoin:miter"
     transform="translate(-20.293951,-25.942704)" />
  <polyline
     points="521.28,48.0217 519.046,48.0217"
     id="polyline213"
     style="fill:none;stroke:#000000;stroke-width:0.5;stroke-linecap:butt;stroke-linejoin:miter"
     transform="translate(-20.293951,-25.942704)" />
  <polyline
     points="74.88,43.3076 77.114,43.3076"
     id="polyline215"
     style="fill:none;stroke:#000000;stroke-width:0.5;stroke-linecap:butt;stroke-linejoin:miter"
     transform="translate(-20.293951,-25.942704)" />
  <polyline
     points="521.28,43.3076 519.046,43.3076"
     id="polyline217"
     style="fill:none;stroke:#000000;stroke-width:0.5;stroke-linecap:butt;stroke-linejoin:miter"
     transform="translate(-20.293951,-25.942704)" />
  <polyline
     points="74.88,39.224 77.114,39.224"
     id="polyline219"
     style="fill:none;stroke:#000000;stroke-width:0.5;stroke-linecap:butt;stroke-linejoin:miter"
     transform="translate(-20.293951,-25.942704)" />
  <polyline
     points="521.28,39.224 519.046,39.224"
     id="polyline221"
     style="fill:none;stroke:#000000;stroke-width:0.5;stroke-linecap:butt;stroke-linejoin:miter"
     transform="translate(-20.293951,-25.942704)" />
  <polyline
     points="74.88,35.6221 77.114,35.6221"
     id="polyline223"
     style="fill:none;stroke:#000000;stroke-width:0.5;stroke-linecap:butt;stroke-linejoin:miter"
     transform="translate(-20.293951,-25.942704)" />
  <polyline
     points="521.28,35.6221 519.046,35.6221"
     id="polyline225"
     style="fill:none;stroke:#000000;stroke-width:0.5;stroke-linecap:butt;stroke-linejoin:miter"
     transform="translate(-20.293951,-25.942704)" />
  <polyline
     points="74.88,384.48 79.348,384.48"
     id="polyline227"
     style="fill:none;stroke:#000000;stroke-width:0.5;stroke-linecap:butt;stroke-linejoin:miter"
     transform="translate(-20.293951,-25.942704)" />
  <polyline
     points="521.28,384.48 516.812,384.48"
     id="polyline229"
     style="fill:none;stroke:#000000;stroke-width:0.5;stroke-linecap:butt;stroke-linejoin:miter"
     transform="translate(-20.293951,-25.942704)" />
  <polyline
     points="74.88,314.064 79.348,314.064"
     id="polyline231"
     style="fill:none;stroke:#000000;stroke-width:0.5;stroke-linecap:butt;stroke-linejoin:miter"
     transform="translate(-20.293951,-25.942704)" />
  <polyline
     points="521.28,314.064 516.812,314.064"
     id="polyline233"
     style="fill:none;stroke:#000000;stroke-width:0.5;stroke-linecap:butt;stroke-linejoin:miter"
     transform="translate(-20.293951,-25.942704)" />
  <polyline
     points="74.88,243.648 79.348,243.648"
     id="polyline235"
     style="fill:none;stroke:#000000;stroke-width:0.5;stroke-linecap:butt;stroke-linejoin:miter"
     transform="translate(-20.293951,-25.942704)" />
  <polyline
     points="521.28,243.648 516.812,243.648"
     id="polyline237"
     style="fill:none;stroke:#000000;stroke-width:0.5;stroke-linecap:butt;stroke-linejoin:miter"
     transform="translate(-20.293951,-25.942704)" />
  <polyline
     points="74.88,173.232 79.348,173.232"
     id="polyline239"
     style="fill:none;stroke:#000000;stroke-width:0.5;stroke-linecap:butt;stroke-linejoin:miter"
     transform="translate(-20.293951,-25.942704)" />
  <polyline
     points="521.28,173.232 516.812,173.232"
     id="polyline241"
     style="fill:none;stroke:#000000;stroke-width:0.5;stroke-linecap:butt;stroke-linejoin:miter"
     transform="translate(-20.293951,-25.942704)" />
  <polyline
     points="74.88,102.816 79.348,102.816"
     id="polyline243"
     style="fill:none;stroke:#000000;stroke-width:0.5;stroke-linecap:butt;stroke-linejoin:miter"
     transform="translate(-20.293951,-25.942704)" />
  <polyline
     points="521.28,102.816 516.812,102.816"
     id="polyline245"
     style="fill:none;stroke:#000000;stroke-width:0.5;stroke-linecap:butt;stroke-linejoin:miter"
     transform="translate(-20.293951,-25.942704)" />
  <polyline
     points="74.88,32.4 79.348,32.4"
     id="polyline247"
     style="fill:none;stroke:#000000;stroke-width:0.5;stroke-linecap:butt;stroke-linejoin:miter"
     transform="translate(-20.293951,-25.942704)" />
  <polyline
     points="521.28,32.4 516.812,32.4"
     id="polyline249"
     style="fill:none;stroke:#000000;stroke-width:0.5;stroke-linecap:butt;stroke-linejoin:miter"
     transform="translate(-20.293951,-25.942704)" />
  <text
     xml:space="preserve"
     font-weight="normal"
     font-style="normal"
     font-size="10"
     id="text255"
     style="font-style:normal;font-weight:normal;font-size:13px;font-family:FreeSans;fill:#000000;stroke-width:1.29999995"
     x="23.062948"
     y="368.55359"><tspan
       y="367.2536"
       x="23.062948 30.862947"
       id="tspan251"
       style="fill:#000000;stroke-width:1.29999995">10</tspan><tspan
       font-size="8"
       y="359.45358"
       x="38.662949 42.562954"
       id="tspan253"
       style="font-size:10.39999962px;fill:#000000;stroke-width:1.29999995">-5</tspan></text>
  <text
     xml:space="preserve"
     font-weight="normal"
     font-style="normal"
     font-size="10"
     id="text261"
     style="font-style:normal;font-weight:normal;font-size:13px;font-family:FreeSans;fill:#000000;stroke-width:1.29999995"
     x="23.054548"
     y="298.13757"><tspan
       y="296.83759"
       x="23.054548 30.854548"
       id="tspan257"
       style="fill:#000000;stroke-width:1.29999995">10</tspan><tspan
       font-size="8"
       y="289.03757"
       x="38.654549 42.554554"
       id="tspan259"
       style="font-size:10.39999962px;fill:#000000;stroke-width:1.29999995">-4</tspan></text>
  <text
     xml:space="preserve"
     font-weight="normal"
     font-style="normal"
     font-size="10"
     id="text267"
     style="font-style:normal;font-weight:normal;font-size:13px;font-family:FreeSans;fill:#000000;stroke-width:1.29999995"
     x="23.071348"
     y="227.72159"><tspan
       y="226.42159"
       x="23.071348 30.871347"
       id="tspan263"
       style="fill:#000000;stroke-width:1.29999995">10</tspan><tspan
       font-size="8"
       y="218.6216"
       x="38.671349 42.571354"
       id="tspan265"
       style="font-size:10.39999962px;fill:#000000;stroke-width:1.29999995">-3</tspan></text>
  <text
     xml:space="preserve"
     font-weight="normal"
     font-style="normal"
     font-size="10"
     id="text273"
     style="font-style:normal;font-weight:normal;font-size:13px;font-family:FreeSans;fill:#000000;stroke-width:1.29999995"
     x="23.065348"
     y="157.30559"><tspan
       y="156.00558"
       x="23.065348 30.865347"
       id="tspan269"
       style="fill:#000000;stroke-width:1.29999995">10</tspan><tspan
       font-size="8"
       y="148.2056"
       x="38.665352 42.565357"
       id="tspan271"
       style="font-size:10.39999962px;fill:#000000;stroke-width:1.29999995">-2</tspan></text>
  <text
     xml:space="preserve"
     font-weight="normal"
     font-style="normal"
     font-size="10"
     id="text279"
     style="font-style:normal;font-weight:normal;font-size:13px;font-family:FreeSans;fill:#000000;stroke-width:1.29999995"
     x="23.262148"
     y="86.889595"><tspan
       y="85.5896"
       x="23.262148 31.062147"
       id="tspan275"
       style="fill:#000000;stroke-width:1.29999995">10</tspan><tspan
       font-size="8"
       y="77.789597"
       x="38.862148 42.762157"
       id="tspan277"
       style="font-size:10.39999962px;fill:#000000;stroke-width:1.29999995">-1</tspan></text>
  <text
     xml:space="preserve"
     font-weight="normal"
     font-style="normal"
     font-size="10"
     id="text285"
     style="font-style:normal;font-weight:normal;font-size:13px;font-family:FreeSans;fill:#000000;stroke-width:1.29999995"
     x="26.520147"
     y="16.473598"><tspan
       y="15.173599"
       x="26.520147 34.320148"
       id="tspan281"
       style="fill:#000000;stroke-width:1.29999995">10</tspan><tspan
       font-size="8"
       y="7.3735995"
       x="42.120152"
       id="tspan283"
       style="font-size:10.39999962px;fill:#000000;stroke-width:1.29999995">0</tspan></text>
  <polyline
     points="74.88,384.48 521.28,384.48"
     id="polyline287"
     style="fill:none;stroke:#000000;stroke-width:0.5;stroke-linecap:square;stroke-linejoin:miter;stroke-dasharray:16, 0"
     transform="translate(-20.293951,-25.942704)" />
  <polyline
     points="74.88,32.4 521.28,32.4"
     id="polyline289"
     style="fill:none;stroke:#000000;stroke-width:0.5;stroke-linecap:square;stroke-linejoin:miter;stroke-dasharray:16, 0"
     transform="translate(-20.293951,-25.942704)" />
  <polyline
     points="74.88,384.48 74.88,32.4"
     id="polyline291"
     style="fill:none;stroke:#000000;stroke-width:0.5;stroke-linecap:square;stroke-linejoin:miter;stroke-dasharray:16, 0"
     transform="translate(-20.293951,-25.942704)" />
  <polyline
     points="521.28,384.48 521.28,32.4"
     id="polyline293"
     style="fill:none;stroke:#000000;stroke-width:0.5;stroke-linecap:square;stroke-linejoin:miter;stroke-dasharray:16, 0"
     transform="translate(-20.293951,-25.942704)" />
  <text
     xml:space="preserve"
     font-weight="normal"
     font-style="normal"
     font-size="11"
     id="text297"
     style="font-style:normal;font-weight:normal;font-size:14.30000019px;font-family:FreeSans;fill:#000000;stroke-width:1.29999995"
     x="273.89999"
     y="404.02762"><tspan
       y="401.42761"
       x="273.89999"
       id="tspan295"
       style="fill:#000000;stroke-width:1.29999995">n</tspan></text>
  <text
     xml:space="preserve"
     transform="rotate(-90)"
     font-weight="normal"
     font-style="normal"
     font-size="11"
     id="text301"
     style="font-style:normal;font-weight:normal;font-size:14.30000019px;font-family:FreeSans;fill:#000000;stroke-width:1.29999995"
     x="-224.6192"
     y="13.024698"><tspan
       y="10.4247"
       x="-224.6192 -216.8192 -210.3192 -202.5192 -198.6192 -194.71919 -192.1192 -180.4192 -172.6192 -168.71919 -163.5192 -151.8192 -145.3192"
       id="tspan299"
       style="fill:#000000;stroke-width:1.29999995">avg time (ms)</tspan></text>
  <polyline
     points="79.344,264.839 83.808,277.552 88.272,287.017 92.736,284.832 97.2,278.723 101.664,279.577 106.128,274.954 110.592,273.673 115.056,271.652 119.52,270.324 123.984,269.538 128.448,267.495 132.912,268.646 137.376,267.665 141.84,266.481 146.304,264.797 150.768,263.104 155.232,261.641 159.696,260.238 164.16,258.704 168.624,257.272 173.088,256.051 177.552,254.81 182.016,253.567 186.48,252.473 190.944,251.397 195.408,250.279 199.872,249.285 204.336,248.316 208.8,247.222 213.264,246.321 217.728,245.454 222.192,244.494 226.656,242.98 231.12,241.884 235.584,241.11 240.048,241.149 244.512,240.472 248.976,239.744 253.44,239.012 257.904,238.252 262.368,237.646 266.832,236.791 271.296,236.173 275.76,235.676 280.224,234.952 284.688,234.34 289.152,233.67 293.616,233.077 298.08,232.09 302.544,231.91 307.008,231.361 311.472,230.788 315.936,230.305 320.4,229.765 324.864,229.15 329.328,228.652 333.792,228.188 338.256,227.694 342.72,227.034 347.184,226.595 351.648,226.19 356.112,225.36 360.576,225.222 365.04,224.824 369.504,224.395 373.968,223.905 378.432,223.616 382.896,223.143 387.36,222.635 391.824,222.233 396.288,221.826 400.752,221.377 405.216,220.973 409.68,220.544 414.144,220.101 418.608,219.725 423.072,219.402 427.536,219.112 432,218.708 436.464,218.328 440.928,217.872 445.392,217.436 449.856,217.081 454.32,216.756 458.784,216.422 463.248,216.052 467.712,215.542 472.176,215.386 476.64,215.053 481.104,214.589 485.568,214.361 490.032,214.175 494.496,213.766 498.96,213.47 503.424,213.213 507.888,212.948 512.352,212.49 516.816,212.247"
     id="polyline303"
     style="fill:none;stroke:#0071bc;stroke-width:2;stroke-linecap:butt;stroke-linejoin:round"
     transform="translate(-20.293951,-25.942704)" />
  <polyline
     points="79.344,319.861 83.808,312.215 88.272,305.667 92.736,300.211 97.2,295.555 101.664,291.584 106.128,288.03 110.592,284.734 115.056,281.875 119.52,279.287 123.984,276.814 128.448,274.621 132.912,272.454 137.376,270.509 141.84,268.678 146.304,266.947 150.768,265.177 155.232,263.689 159.696,262.233 164.16,260.833 168.624,259.442 173.088,258.169 177.552,256.833 182.016,255.725 186.48,254.541 190.944,253.299 195.408,252.33 199.872,251.269 204.336,250.378 208.8,249.432 213.264,248.486 217.728,247.51 222.192,246.541 226.656,245.726 231.12,244.889 235.584,244.071 240.048,243.328 244.512,242.511 248.976,241.892 253.44,241.109 257.904,240.465 262.368,239.543 266.832,238.918 271.296,238.251 275.76,237.533 280.224,236.93 284.688,236.381 289.152,235.746 293.616,235.185 298.08,234.397 302.544,233.902 307.008,233.379 311.472,232.815 315.936,232.243 320.4,231.748 324.864,231.129 329.328,230.688 333.792,230.253 338.256,229.704 342.72,229.178 347.184,228.695 351.648,228.25 356.112,227.794 360.576,227.213 365.04,226.948 369.504,226.451 373.968,226.01 378.432,225.492 382.896,225.102 387.36,221.433 391.824,220.427 396.288,223.311 400.752,222.969 405.216,221.355 409.68,221.162 414.144,212.998 418.608,212.114 423.072,203.38 427.536,209.269 432,209.916 436.464,216.648 440.928,209.582 445.392,209.981 449.856,215.262 454.32,217.95 458.784,214.663 463.248,213.894 467.712,217.537 472.176,217.498 476.64,215.249 481.104,214.669 485.568,214.911 490.032,207.541 494.496,208.81 498.96,210.411 503.424,209.294 507.888,203.46 512.352,201.739 516.816,207.907"
     id="polyline305"
     style="fill:none;stroke:#d85218;stroke-width:2;stroke-linecap:butt;stroke-linejoin:round"
     transform="translate(-20.293951,-25.942704)" />
  <polyline
     points="79.344,299.684 83.808,288.455 88.272,282.014 92.736,277.108 97.2,272.601 101.664,271.222 106.128,268.664 110.592,265.842 115.056,259.589 119.52,255.279 123.984,251.811 128.448,247.362 132.912,245.556 137.376,244.158 141.84,241.591 146.304,238.462 150.768,237.776 155.232,236.404 159.696,236.05 164.16,234.315 168.624,232.611 173.088,231.445 177.552,234.734 182.016,237.284 186.48,235.137 190.944,236.579 195.408,230.713 199.872,227.319 204.336,227.106 208.8,222.693 213.264,224.509 217.728,228.333 222.192,227.995 226.656,229.052 231.12,224.284 235.584,220.249 240.048,223.841 244.512,217.706 248.976,216.676 253.44,215.171 257.904,212.686 262.368,211.128 266.832,209.826 271.296,211.32 275.76,210.09 280.224,209.009 284.688,208.874 289.152,203.397 293.616,205.286 298.08,207.991 302.544,208.106 307.008,206.091 311.472,204.339 315.936,203.03 320.4,202.434 324.864,201.833 329.328,200.767 333.792,200.719 338.256,198.598 342.72,201.288 347.184,199.861 351.648,200.656 356.112,200.921 360.576,198.055 365.04,196.214 369.504,200.812 373.968,197.056 378.432,199.09 382.896,203.484 387.36,196.518 391.824,191.697 396.288,195.754 400.752,196.012 405.216,200.336 409.68,204.292 414.144,202.847 418.608,201.753 423.072,196.724 427.536,200.418 432,194.144 436.464,190.476 440.928,189.528 445.392,191.291 449.856,192.115 454.32,198.311 458.784,198.251 463.248,195.005 467.712,194.836 472.176,196.356 476.64,193.16 481.104,188.596 485.568,188.368 490.032,190.746 494.496,190.464 498.96,189.301 503.424,194.485 507.888,187.373 512.352,187.945 516.816,185.261"
     id="polyline307"
     style="fill:none;stroke:#ecb01f;stroke-width:2;stroke-linecap:butt;stroke-linejoin:round"
     transform="translate(-20.293951,-25.942704)" />
  <polyline
     points="79.344,298.522 83.808,289.505 88.272,283.773 92.736,277.673 97.2,273.946 101.664,269.856 106.128,266.104 110.592,263.454 115.056,257.745 119.52,257.642 123.984,255.123 128.448,253.012 132.912,250.986 137.376,248.581 141.84,240.753 146.304,226.636 150.768,243.15 155.232,234.535 159.696,219.056 164.16,223.737 168.624,234.887 173.088,222.316 177.552,238.231 182.016,227.309 186.48,220.468 190.944,227.16 195.408,236.533 199.872,219.263 204.336,232.519 208.8,235.127 213.264,215.899 217.728,222.576 222.192,213.295 226.656,215.617 231.12,213.233 235.584,203.437 240.048,196.048 244.512,208.111 248.976,207.991 253.44,210.975 257.904,188.74 262.368,206.077 266.832,206.437 271.296,211.615 275.76,193.305 280.224,202.139 284.688,194.641 289.152,200.459 293.616,199.208 298.08,192.082 302.544,179.237 307.008,198.57 311.472,195.998 315.936,195.165 320.4,185.834 324.864,171.024 329.328,171.414 333.792,174.878 338.256,185.62 342.72,200.747 347.184,184.968 351.648,204.739 356.112,186.274 360.576,194.143 365.04,171.396 369.504,195.544 373.968,190.692 378.432,193.552 382.896,171.121 387.36,192.55 391.824,191.172 396.288,171.766 400.752,182.943 405.216,192.914 409.68,185.992 414.144,183.954 418.608,168.807 423.072,186.816 427.536,180.541 432,168.188 436.464,175.71 440.928,183.032 445.392,184.796 449.856,164.697 454.32,184.157 458.784,176.797 463.248,172.979 467.712,181.278 472.176,178.805 476.64,181.109 481.104,181.352 485.568,157.6 490.032,181.555 494.496,181.735 498.96,178.027 503.424,177.228 507.888,172.326 512.352,176.926 516.816,173.894"
     id="polyline309"
     style="fill:none;stroke:#7d2e8d;stroke-width:2;stroke-linecap:butt;stroke-linejoin:round"
     transform="translate(-20.293951,-25.942704)" />
  <polyline
     points="79.344,335.962 83.808,318.916 88.272,303.55 92.736,291.736 97.2,281.405 101.664,270.706 106.128,264.432 110.592,257.553 115.056,250.84 119.52,245.204 123.984,240.371 128.448,234.958 132.912,230.556 137.376,226.793 141.84,222.474 146.304,219.818 150.768,216.292 155.232,213.106 159.696,210.003 164.16,205.68 168.624,203.925 173.088,201.386 177.552,198.986 182.016,196.465 186.48,194.094 190.944,191.822 195.408,189.342 199.872,186.889 204.336,185.158 208.8,183.217 213.264,181.387 217.728,179.067 222.192,177.604 226.656,175.944 231.12,174.156 235.584,172.4 240.048,170.841 244.512,169.427 248.976,167.842 253.44,166.318 257.904,164.879 262.368,163.112 266.832,161.875 271.296,160.59 275.76,159.345 280.224,157.931 284.688,156.724 289.152,155.389 293.616,154.213 298.08,152.893 302.544,151.783 307.008,150.617 311.472,149.421 315.936,148.291 320.4,147.264 324.864,145.91 329.328,145.042 333.792,143.39 338.256,142.874 342.72,141.781 347.184,140.416 351.648,139.826 356.112,138.883 360.576,137.655 365.04,137.099 369.504,136.173 373.968,135.188 378.432,134.218 382.896,133.235 387.36,132.457 391.824,131.333 396.288,130.624 400.752,129.676 405.216,128.799 409.68,127.872 414.144,127.218 418.608,126.48 423.072,125.612 427.536,124.222 432,122.646 436.464,122.489 440.928,122.404 445.392,121.887 449.856,120.883 454.32,120.149 458.784,119.002 463.248,118.17 467.712,110.316 472.176,110.244 476.64,114.6 481.104,116.057 485.568,113.112 490.032,111.003 494.496,112.453 498.96,112.859 503.424,111.826 507.888,109.454 512.352,107.75 516.816,108.811"
     id="polyline311"
     style="fill:none;stroke:#76ab2f;stroke-width:2;stroke-linecap:butt;stroke-linejoin:round"
     transform="translate(-20.293951,-25.942704)" />
  <polyline
     points="79.344,320.889 83.808,313.981 88.272,297.445 92.736,287.462 97.2,275.837 101.664,267.415 106.128,253.377 110.592,244.187 115.056,234.263 119.52,225.94 123.984,217.535 128.448,212.079 132.912,206.073 137.376,200.128 141.84,195.253 146.304,190.321 150.768,184.389 155.232,181.248 159.696,177.39 164.16,173.635 168.624,169.614 173.088,166.626 177.552,163.428 182.016,157.232 186.48,149.444 190.944,150.204 195.408,150.225 199.872,146.458 204.336,146.487 208.8,144.714 213.264,142.885 217.728,140.484 222.192,138.157 226.656,136.415 231.12,134.366 235.584,132.408 240.048,128.347 244.512,128.766 248.976,127.064 253.44,125.368 257.904,123.207 262.368,121.282 266.832,119.689 271.296,117.473 275.76,116.754 280.224,115.333 284.688,113.888 289.152,111.621 293.616,111.009 298.08,109.753 302.544,107.424 307.008,107.378 311.472,105.829 315.936,104.658 320.4,103.52 324.864,102.271 329.328,100.939 333.792,99.5749 338.256,98.6111 342.72,97.6044 347.184,96.2121 351.648,95.5227 356.112,94.4464 360.576,93.3964 365.04,92.2845 369.504,91.249 373.968,90.2462 378.432,88.8598 382.896,88.5026 387.36,87.5665 391.824,86.5169 396.288,85.2833 400.752,84.5245 405.216,83.6335 409.68,83.0345 414.144,82.135 418.608,81.0865 423.072,80.2051 427.536,79.3339 432,78.7186 436.464,77.8841 440.928,76.927 445.392,76.1048 449.856,75.1457 454.32,74.6525 458.784,73.5305 463.248,73.0888 467.712,72.4524 472.176,71.7433 476.64,70.7744 481.104,70.1293 485.568,69.321 490.032,68.7776 494.496,68.0962 498.96,67.4839 503.424,66.7496 507.888,65.8574 512.352,64.1826 516.816,64.7325"
     id="polyline313"
     style="fill:none;stroke:#4cbded;stroke-width:2;stroke-linecap:butt;stroke-linejoin:round"
     transform="translate(-20.293951,-25.942704)" />
  <g
     id="g757"
     transform="translate(-5.2939507,-10.942704)">
    <polyline
       style="fill:none;stroke:#000000;stroke-width:0.5;stroke-linecap:square;stroke-linejoin:miter;stroke-dasharray:16, 0"
       id="polyline325"
       points="77.6258,119.506 148.628,119.506" />
    <polyline
       style="fill:none;stroke:#000000;stroke-width:0.5;stroke-linecap:square;stroke-linejoin:miter;stroke-dasharray:16, 0"
       id="polyline327"
       points="77.6258,35.1458 148.628,35.1458" />
    <polyline
       style="fill:none;stroke:#000000;stroke-width:0.5;stroke-linecap:square;stroke-linejoin:miter;stroke-dasharray:16, 0"
       id="polyline329"
       points="77.6258,119.506 77.6258,35.1458" />
    <polyline
       style="fill:none;stroke:#000000;stroke-width:0.5;stroke-linecap:square;stroke-linejoin:miter;stroke-dasharray:16, 0"
       id="polyline331"
       points="148.628,119.506 148.628,35.1458" />
    <text
       y="47.6759"
       x="103.711"
       style="font-style:normal;font-weight:normal;font-size:9px;font-family:FreeSans"
       id="text335"
       font-size="9"
       font-style="normal"
       font-weight="normal"
       xml:space="preserve"><tspan
         style="fill:#000000"
         id="tspan333"
         x="103.711 107.711 112.711 114.711 119.711 124.711 129.711 134.711 137.711"
         y="46.6759">ybincoeff</tspan></text>
    <text
       y="61.735901"
       x="103.711"
       style="font-style:normal;font-weight:normal;font-size:9px;font-family:FreeSans"
       id="text339"
       font-size="9"
       font-style="normal"
       font-weight="normal"
       xml:space="preserve"><tspan
         style="fill:#000000"
         id="tspan337"
         x="103.711 108.711 113.711 115.711 120.711 125.711 130.711 135.711 138.711"
         y="60.735901">gbincoeff</tspan></text>
    <text
       y="75.795998"
       x="103.711"
       style="font-style:normal;font-weight:normal;font-size:9px;font-family:FreeSans"
       id="text343"
       font-size="9"
       font-style="normal"
       font-weight="normal"
       xml:space="preserve"><tspan
         style="fill:#000000"
         id="tspan341"
         x="103.711 106.711 111.711 113.711 118.711 123.711 128.711 133.711 136.711"
         y="74.795998">fbincoeff</tspan></text>
    <text
       y="89.856102"
       x="103.711"
       style="font-style:normal;font-weight:normal;font-size:9px;font-family:FreeSans"
       id="text347"
       font-size="9"
       font-style="normal"
       font-weight="normal"
       xml:space="preserve"><tspan
         style="fill:#000000"
         id="tspan345"
         x="103.711 106.711 109.711 112.711 117.711 119.711 124.711 129.711 134.711 139.711"
         y="88.856102">fftbincoef</tspan></text>
    <text
       y="103.916"
       x="103.711"
       style="font-style:normal;font-weight:normal;font-size:9px;font-family:FreeSans"
       id="text351"
       font-size="9"
       font-style="normal"
       font-weight="normal"
       xml:space="preserve"><tspan
         style="fill:#000000"
         id="tspan349"
         x="103.711 106.711 111.711 113.711 118.711 123.711 128.711 133.711 136.711"
         y="102.916">rbincoeff</tspan></text>
    <text
       y="117.976"
       x="103.711"
       style="font-style:normal;font-weight:normal;font-size:9px;font-family:FreeSans"
       id="text355"
       font-size="9"
       font-style="normal"
       font-weight="normal"
       xml:space="preserve"><tspan
         style="fill:#000000"
         id="tspan353"
         x="103.711 108.711 111.711 116.711 118.711 123.711 128.711 133.711 138.711 141.711"
         y="116.976">pfbincoeff</tspan></text>
    <polyline
       style="fill:none;stroke:#0071bc;stroke-width:2;stroke-linecap:butt;stroke-linejoin:round"
       id="polyline357"
       points="80.3716,42.1758 100.965,42.1758" />
    <polyline
       style="fill:none;stroke:#d85218;stroke-width:2;stroke-linecap:butt;stroke-linejoin:round"
       id="polyline359"
       points="80.3716,56.236 100.965,56.236" />
    <polyline
       style="fill:none;stroke:#ecb01f;stroke-width:2;stroke-linecap:butt;stroke-linejoin:round"
       id="polyline361"
       points="80.3716,70.296 100.965,70.296" />
    <polyline
       style="fill:none;stroke:#7d2e8d;stroke-width:2;stroke-linecap:butt;stroke-linejoin:round"
       id="polyline363"
       points="80.3716,84.3561 100.965,84.3561" />
    <polyline
       style="fill:none;stroke:#76ab2f;stroke-width:2;stroke-linecap:butt;stroke-linejoin:round"
       id="polyline365"
       points="80.3716,98.4162 100.965,98.4162" />
    <polyline
       style="fill:none;stroke:#4cbded;stroke-width:2;stroke-linecap:butt;stroke-linejoin:round"
       id="polyline367"
       points="80.3716,112.476 100.965,112.476" />
  </g>
</svg>
