<?xml version="1.0" encoding="UTF-8" standalone="no"?>
<svg xmlns="http://www.w3.org/2000/svg"
     xmlns:xlink="http://www.w3.org/1999/xlink"
     width="576pt" height="432pt" viewBox="0 0 576 432">
<title>gl2ps_renderer figure</title>
<desc>
Creator: GL2PS 1.4.0, (C) 1999-2017 C. Geuzaine
For: Octave
CreationDate: Thu May 30 18:58:53 2019
</desc>
<defs>
</defs>
<polygon fill="#ffffff" points="0,0 576,0 576,432 0,432"/>
<g>
<polygon fill="#ffffff" points="0,432 576,432 576,0 0,0" shape-rendering="crispEdges"/>
<clipPath id="cp00576432">
  <polygon points="0,432 576,432 576,0 0,0"/>
</clipPath>
<g clip-path="url(#cp00576432)">
<polygon fill="#ffffff" shape-rendering="crispEdges" points="74.88,384.48 521.28,384.48 74.88,32.4"/>
<polygon fill="#ffffff" shape-rendering="crispEdges" points="521.28,384.48 521.28,32.4 74.88,32.4"/>
<polyline fill="none" stroke="#262626" stroke-width="0.5" stroke-linecap="butt" stroke-linejoin="miter" points="74.88,384.48 74.88,380.015"/>
<polyline fill="none" stroke="#262626" stroke-width="0.5" stroke-linecap="butt" stroke-linejoin="miter" points="74.88,32.4 74.88,36.8651"/>
<polyline fill="none" stroke="#262626" stroke-width="0.5" stroke-linecap="butt" stroke-linejoin="miter" points="134.4,384.48 134.4,380.015"/>
<polyline fill="none" stroke="#262626" stroke-width="0.5" stroke-linecap="butt" stroke-linejoin="miter" points="134.4,32.4 134.4,36.8651"/>
<polyline fill="none" stroke="#262626" stroke-width="0.5" stroke-linecap="butt" stroke-linejoin="miter" points="193.92,384.48 193.92,380.015"/>
<polyline fill="none" stroke="#262626" stroke-width="0.5" stroke-linecap="butt" stroke-linejoin="miter" points="193.92,32.4 193.92,36.8651"/>
<polyline fill="none" stroke="#262626" stroke-width="0.5" stroke-linecap="butt" stroke-linejoin="miter" points="253.44,384.48 253.44,380.015"/>
<polyline fill="none" stroke="#262626" stroke-width="0.5" stroke-linecap="butt" stroke-linejoin="miter" points="253.44,32.4 253.44,36.8651"/>
<polyline fill="none" stroke="#262626" stroke-width="0.5" stroke-linecap="butt" stroke-linejoin="miter" points="312.96,384.48 312.96,380.015"/>
<polyline fill="none" stroke="#262626" stroke-width="0.5" stroke-linecap="butt" stroke-linejoin="miter" points="312.96,32.4 312.96,36.8651"/>
<polyline fill="none" stroke="#262626" stroke-width="0.5" stroke-linecap="butt" stroke-linejoin="miter" points="372.48,384.48 372.48,380.015"/>
<polyline fill="none" stroke="#262626" stroke-width="0.5" stroke-linecap="butt" stroke-linejoin="miter" points="372.48,32.4 372.48,36.8651"/>
<polyline fill="none" stroke="#262626" stroke-width="0.5" stroke-linecap="butt" stroke-linejoin="miter" points="432,384.48 432,380.015"/>
<polyline fill="none" stroke="#262626" stroke-width="0.5" stroke-linecap="butt" stroke-linejoin="miter" points="432,32.4 432,36.8651"/>
<polyline fill="none" stroke="#262626" stroke-width="0.5" stroke-linecap="butt" stroke-linejoin="miter" points="491.52,384.48 491.52,380.015"/>
<polyline fill="none" stroke="#262626" stroke-width="0.5" stroke-linecap="butt" stroke-linejoin="miter" points="491.52,32.4 491.52,36.8651"/>
<text xml:space="preserve" transform="translate(71.88,400.481) rotate(-0,3,-11)" font-family="FreeSans" font-weight="normal" font-style="normal" font-size="10"><tspan y="-1" fill="rgb(38,38,38)" x="0 ">0</tspan></text>
<text xml:space="preserve" transform="translate(128.4,400.481) rotate(-0,6,-11)" font-family="FreeSans" font-weight="normal" font-style="normal" font-size="10"><tspan y="-1" fill="rgb(38,38,38)" x="0 6 ">20</tspan></text>
<text xml:space="preserve" transform="translate(187.92,400.481) rotate(-0,6,-11)" font-family="FreeSans" font-weight="normal" font-style="normal" font-size="10"><tspan y="-1" fill="rgb(38,38,38)" x="0 6 ">40</tspan></text>
<text xml:space="preserve" transform="translate(247.44,400.481) rotate(-0,6,-11)" font-family="FreeSans" font-weight="normal" font-style="normal" font-size="10"><tspan y="-1" fill="rgb(38,38,38)" x="0 6 ">60</tspan></text>
<text xml:space="preserve" transform="translate(306.96,400.481) rotate(-0,6,-11)" font-family="FreeSans" font-weight="normal" font-style="normal" font-size="10"><tspan y="-1" fill="rgb(38,38,38)" x="0 6 ">80</tspan></text>
<text xml:space="preserve" transform="translate(363.48,400.481) rotate(-0,9,-11)" font-family="FreeSans" font-weight="normal" font-style="normal" font-size="10"><tspan y="-1" fill="rgb(38,38,38)" x="0 6 12 ">100</tspan></text>
<text xml:space="preserve" transform="translate(423,400.481) rotate(-0,9,-11)" font-family="FreeSans" font-weight="normal" font-style="normal" font-size="10"><tspan y="-1" fill="rgb(38,38,38)" x="0 6 12 ">120</tspan></text>
<text xml:space="preserve" transform="translate(482.52,400.481) rotate(-0,9,-11)" font-family="FreeSans" font-weight="normal" font-style="normal" font-size="10"><tspan y="-1" fill="rgb(38,38,38)" x="0 6 12 ">140</tspan></text>
<polyline fill="none" stroke="#262626" stroke-width="0.5" stroke-linecap="butt" stroke-linejoin="miter" points="74.88,349.151 77.114,349.151"/>
<polyline fill="none" stroke="#262626" stroke-width="0.5" stroke-linecap="butt" stroke-linejoin="miter" points="521.28,349.151 519.046,349.151"/>
<polyline fill="none" stroke="#262626" stroke-width="0.5" stroke-linecap="butt" stroke-linejoin="miter" points="74.88,328.485 77.114,328.485"/>
<polyline fill="none" stroke="#262626" stroke-width="0.5" stroke-linecap="butt" stroke-linejoin="miter" points="521.28,328.485 519.046,328.485"/>
<polyline fill="none" stroke="#262626" stroke-width="0.5" stroke-linecap="butt" stroke-linejoin="miter" points="74.88,313.822 77.114,313.822"/>
<polyline fill="none" stroke="#262626" stroke-width="0.5" stroke-linecap="butt" stroke-linejoin="miter" points="521.28,313.822 519.046,313.822"/>
<polyline fill="none" stroke="#262626" stroke-width="0.5" stroke-linecap="butt" stroke-linejoin="miter" points="74.88,302.449 77.114,302.449"/>
<polyline fill="none" stroke="#262626" stroke-width="0.5" stroke-linecap="butt" stroke-linejoin="miter" points="521.28,302.449 519.046,302.449"/>
<polyline fill="none" stroke="#262626" stroke-width="0.5" stroke-linecap="butt" stroke-linejoin="miter" points="74.88,293.156 77.114,293.156"/>
<polyline fill="none" stroke="#262626" stroke-width="0.5" stroke-linecap="butt" stroke-linejoin="miter" points="521.28,293.156 519.046,293.156"/>
<polyline fill="none" stroke="#262626" stroke-width="0.5" stroke-linecap="butt" stroke-linejoin="miter" points="74.88,285.299 77.114,285.299"/>
<polyline fill="none" stroke="#262626" stroke-width="0.5" stroke-linecap="butt" stroke-linejoin="miter" points="521.28,285.299 519.046,285.299"/>
<polyline fill="none" stroke="#262626" stroke-width="0.5" stroke-linecap="butt" stroke-linejoin="miter" points="74.88,278.493 77.114,278.493"/>
<polyline fill="none" stroke="#262626" stroke-width="0.5" stroke-linecap="butt" stroke-linejoin="miter" points="521.28,278.493 519.046,278.493"/>
<polyline fill="none" stroke="#262626" stroke-width="0.5" stroke-linecap="butt" stroke-linejoin="miter" points="74.88,272.49 77.114,272.49"/>
<polyline fill="none" stroke="#262626" stroke-width="0.5" stroke-linecap="butt" stroke-linejoin="miter" points="521.28,272.49 519.046,272.49"/>
<polyline fill="none" stroke="#262626" stroke-width="0.5" stroke-linecap="butt" stroke-linejoin="miter" points="74.88,231.791 77.114,231.791"/>
<polyline fill="none" stroke="#262626" stroke-width="0.5" stroke-linecap="butt" stroke-linejoin="miter" points="521.28,231.791 519.046,231.791"/>
<polyline fill="none" stroke="#262626" stroke-width="0.5" stroke-linecap="butt" stroke-linejoin="miter" points="74.88,211.125 77.114,211.125"/>
<polyline fill="none" stroke="#262626" stroke-width="0.5" stroke-linecap="butt" stroke-linejoin="miter" points="521.28,211.125 519.046,211.125"/>
<polyline fill="none" stroke="#262626" stroke-width="0.5" stroke-linecap="butt" stroke-linejoin="miter" points="74.88,196.462 77.114,196.462"/>
<polyline fill="none" stroke="#262626" stroke-width="0.5" stroke-linecap="butt" stroke-linejoin="miter" points="521.28,196.462 519.046,196.462"/>
<polyline fill="none" stroke="#262626" stroke-width="0.5" stroke-linecap="butt" stroke-linejoin="miter" points="74.88,185.089 77.114,185.089"/>
<polyline fill="none" stroke="#262626" stroke-width="0.5" stroke-linecap="butt" stroke-linejoin="miter" points="521.28,185.089 519.046,185.089"/>
<polyline fill="none" stroke="#262626" stroke-width="0.5" stroke-linecap="butt" stroke-linejoin="miter" points="74.88,175.796 77.114,175.796"/>
<polyline fill="none" stroke="#262626" stroke-width="0.5" stroke-linecap="butt" stroke-linejoin="miter" points="521.28,175.796 519.046,175.796"/>
<polyline fill="none" stroke="#262626" stroke-width="0.5" stroke-linecap="butt" stroke-linejoin="miter" points="74.88,167.939 77.114,167.939"/>
<polyline fill="none" stroke="#262626" stroke-width="0.5" stroke-linecap="butt" stroke-linejoin="miter" points="521.28,167.939 519.046,167.939"/>
<polyline fill="none" stroke="#262626" stroke-width="0.5" stroke-linecap="butt" stroke-linejoin="miter" points="74.88,161.133 77.114,161.133"/>
<polyline fill="none" stroke="#262626" stroke-width="0.5" stroke-linecap="butt" stroke-linejoin="miter" points="521.28,161.133 519.046,161.133"/>
<polyline fill="none" stroke="#262626" stroke-width="0.5" stroke-linecap="butt" stroke-linejoin="miter" points="74.88,155.13 77.114,155.13"/>
<polyline fill="none" stroke="#262626" stroke-width="0.5" stroke-linecap="butt" stroke-linejoin="miter" points="521.28,155.13 519.046,155.13"/>
<polyline fill="none" stroke="#262626" stroke-width="0.5" stroke-linecap="butt" stroke-linejoin="miter" points="74.88,114.431 77.114,114.431"/>
<polyline fill="none" stroke="#262626" stroke-width="0.5" stroke-linecap="butt" stroke-linejoin="miter" points="521.28,114.431 519.046,114.431"/>
<polyline fill="none" stroke="#262626" stroke-width="0.5" stroke-linecap="butt" stroke-linejoin="miter" points="74.88,93.7651 77.114,93.7651"/>
<polyline fill="none" stroke="#262626" stroke-width="0.5" stroke-linecap="butt" stroke-linejoin="miter" points="521.28,93.7651 519.046,93.7651"/>
<polyline fill="none" stroke="#262626" stroke-width="0.5" stroke-linecap="butt" stroke-linejoin="miter" points="74.88,79.1023 77.114,79.1023"/>
<polyline fill="none" stroke="#262626" stroke-width="0.5" stroke-linecap="butt" stroke-linejoin="miter" points="521.28,79.1023 519.046,79.1023"/>
<polyline fill="none" stroke="#262626" stroke-width="0.5" stroke-linecap="butt" stroke-linejoin="miter" points="74.88,67.7289 77.114,67.7289"/>
<polyline fill="none" stroke="#262626" stroke-width="0.5" stroke-linecap="butt" stroke-linejoin="miter" points="521.28,67.7289 519.046,67.7289"/>
<polyline fill="none" stroke="#262626" stroke-width="0.5" stroke-linecap="butt" stroke-linejoin="miter" points="74.88,58.4362 77.114,58.4362"/>
<polyline fill="none" stroke="#262626" stroke-width="0.5" stroke-linecap="butt" stroke-linejoin="miter" points="521.28,58.4362 519.046,58.4362"/>
<polyline fill="none" stroke="#262626" stroke-width="0.5" stroke-linecap="butt" stroke-linejoin="miter" points="74.88,50.5793 77.114,50.5793"/>
<polyline fill="none" stroke="#262626" stroke-width="0.5" stroke-linecap="butt" stroke-linejoin="miter" points="521.28,50.5793 519.046,50.5793"/>
<polyline fill="none" stroke="#262626" stroke-width="0.5" stroke-linecap="butt" stroke-linejoin="miter" points="74.88,43.7734 77.114,43.7734"/>
<polyline fill="none" stroke="#262626" stroke-width="0.5" stroke-linecap="butt" stroke-linejoin="miter" points="521.28,43.7734 519.046,43.7734"/>
<polyline fill="none" stroke="#262626" stroke-width="0.5" stroke-linecap="butt" stroke-linejoin="miter" points="74.88,37.7701 77.114,37.7701"/>
<polyline fill="none" stroke="#262626" stroke-width="0.5" stroke-linecap="butt" stroke-linejoin="miter" points="521.28,37.7701 519.046,37.7701"/>
<polyline fill="none" stroke="#262626" stroke-width="0.5" stroke-linecap="butt" stroke-linejoin="miter" points="74.88,384.48 79.348,384.48"/>
<polyline fill="none" stroke="#262626" stroke-width="0.5" stroke-linecap="butt" stroke-linejoin="miter" points="521.28,384.48 516.812,384.48"/>
<polyline fill="none" stroke="#262626" stroke-width="0.5" stroke-linecap="butt" stroke-linejoin="miter" points="74.88,267.12 79.348,267.12"/>
<polyline fill="none" stroke="#262626" stroke-width="0.5" stroke-linecap="butt" stroke-linejoin="miter" points="521.28,267.12 516.812,267.12"/>
<polyline fill="none" stroke="#262626" stroke-width="0.5" stroke-linecap="butt" stroke-linejoin="miter" points="74.88,149.76 79.348,149.76"/>
<polyline fill="none" stroke="#262626" stroke-width="0.5" stroke-linecap="butt" stroke-linejoin="miter" points="521.28,149.76 516.812,149.76"/>
<polyline fill="none" stroke="#262626" stroke-width="0.5" stroke-linecap="butt" stroke-linejoin="miter" points="74.88,32.4 79.348,32.4"/>
<polyline fill="none" stroke="#262626" stroke-width="0.5" stroke-linecap="butt" stroke-linejoin="miter" points="521.28,32.4 516.812,32.4"/>
<text xml:space="preserve" transform="translate(50.8755,392.48) rotate(-0,19,-8)" font-family="FreeSans" font-weight="normal" font-style="normal" font-size="10"><tspan y="-1" fill="rgb(38,38,38)" x="0 6 ">10</tspan><tspan font-size="8" y="-7" fill="rgb(38,38,38)" x="12 15 ">-5</tspan></text>
<text xml:space="preserve" transform="translate(50.8755,275.12) rotate(-0,19,-8)" font-family="FreeSans" font-weight="normal" font-style="normal" font-size="10"><tspan y="-1" fill="rgb(38,38,38)" x="0 6 ">10</tspan><tspan font-size="8" y="-7" fill="rgb(38,38,38)" x="12 15 ">-4</tspan></text>
<text xml:space="preserve" transform="translate(50.8755,157.76) rotate(-0,19,-8)" font-family="FreeSans" font-weight="normal" font-style="normal" font-size="10"><tspan y="-1" fill="rgb(38,38,38)" x="0 6 ">10</tspan><tspan font-size="8" y="-7" fill="rgb(38,38,38)" x="12 15 ">-3</tspan></text>
<text xml:space="preserve" transform="translate(50.8755,40.4) rotate(-0,19,-8)" font-family="FreeSans" font-weight="normal" font-style="normal" font-size="10"><tspan y="-1" fill="rgb(38,38,38)" x="0 6 ">10</tspan><tspan font-size="8" y="-7" fill="rgb(38,38,38)" x="12 15 ">-2</tspan></text>
<polyline fill="none" stroke="#262626" stroke-width="0.5" stroke-linecap="square" stroke-linejoin="miter" stroke-dasharray="16,0" points="74.88,384.48 521.28,384.48"/>
<polyline fill="none" stroke="#262626" stroke-width="0.5" stroke-linecap="square" stroke-linejoin="miter" stroke-dasharray="16,0" points="74.88,32.4 521.28,32.4"/>
<polyline fill="none" stroke="#262626" stroke-width="0.5" stroke-linecap="square" stroke-linejoin="miter" stroke-dasharray="16,0" points="74.88,384.48 74.88,32.4"/>
<polyline fill="none" stroke="#262626" stroke-width="0.5" stroke-linecap="square" stroke-linejoin="miter" stroke-dasharray="16,0" points="521.28,384.48 521.28,32.4"/>
<text xml:space="preserve" transform="translate(295.08,413.481) rotate(-0,3,-13)" font-family="FreeSans" font-weight="normal" font-style="normal" font-size="11"><tspan y="-2" fill="rgb(38,38,38)" x="0 ">n</tspan></text>
<text xml:space="preserve" transform="translate(14.3755,208.44) rotate(-90,32.5,0)" font-family="FreeSans" font-weight="normal" font-style="normal" font-size="11"><tspan y="-2" fill="rgb(38,38,38)" x="0 6 11 17 20 23 25 34 40 43 47 56 61 ">avg time (ms)</tspan></text>
<polyline fill="none" stroke="#0071bc" stroke-width="2" stroke-linecap="butt" stroke-linejoin="round" points="77.856,173.88 80.832,235.238 83.808,259.699 86.784,261.34 89.76,263.451 92.736,264.098 95.712,264.292 98.688,263.358 101.664,263.592 104.64,263.106 107.616,262.934 110.592,263.865 113.568,262.953 116.544,262.753 119.52,263.169 122.496,262.676 125.472,262.269 128.448,262.421 131.424,261.652 134.4,262.56 137.376,262.694 140.352,262.234 143.328,262.025 146.304,261.904 149.28,261.506 152.256,261.677 155.232,261.215 158.208,260.843 161.184,261.353 164.16,261.166 167.136,260.751 170.112,260.416 173.088,260.769 176.064,260.703 179.04,260.532 182.016,260.146 184.992,260.271 187.968,260.256 190.944,260.232 193.92,260.303 196.896,260.199 199.872,260.05 202.848,260.32 205.824,258.985 208.8,260.324 211.776,260.299 214.752,260.131 217.728,259.714 220.704,259.498 223.68,259.841 226.656,259.901 229.632,259.854 232.608,259.856 235.584,258.757 238.56,259.404 241.536,259.271 244.512,259.219 247.488,259.324 250.464,258.868 253.44,258.316 256.416,258.329 259.392,258.752 262.368,258.996 265.344,258.423 268.32,259.001 271.296,258.406 274.272,258.783 277.248,257.541 280.224,258.416 283.2,258.478 286.176,258.353 289.152,257.618 292.128,257.961 295.104,257.662 298.08,256.971 301.056,257.397 304.032,257.549 307.008,257.842 309.984,257.684 312.96,257.109 315.936,257.911 318.912,257.294 321.888,256.988 324.864,257.259 327.84,257.76 330.816,257.293 333.792,257.068 336.768,257.56 339.744,257.312 342.72,257.266 345.696,257.082 348.672,256.912 351.648,257.149 354.624,256.737 357.6,256.872 360.576,257.027 363.552,256.58 366.528,257.258 369.504,256.732 372.48,256.723 375.456,256.25 378.432,256.622 381.408,256.95 384.384,256.489 387.36,257.002 390.336,255.938 393.312,256.269 396.288,256.08 399.264,256.325 402.24,256.729 405.216,256.895 408.192,256.807 411.168,256.862 414.144,256.266 417.12,256.8 420.096,257.172 423.072,256.734 426.048,256.861 429.024,256.318 432,257.062 434.976,257.036 437.952,256.542 440.928,256.888 443.904,255.195 446.88,256.679 449.856,256.541 452.832,256.04 455.808,254.958 458.784,256.654 461.76,256.667 464.736,255.817 467.712,255.651 470.688,256.645 473.664,256.846 476.64,255.321 479.616,254.956 482.592,256.354 485.568,255.179 488.544,256.661 491.52,256.064 494.496,255.591 497.472,254.369 500.448,255.288 503.424,255.411 506.4,257.302 509.376,259.963 512.352,258.828 515.328,258.358 518.304,257.691 521.28,258.677 521.726,258.111"/>
<polyline fill="none" stroke="#d85218" stroke-width="2" stroke-linecap="butt" stroke-linejoin="round" points="77.856,184.971 80.832,259.963 83.808,275.501 86.784,279.081 89.76,279.87 92.736,280.797 95.712,281.162 98.688,280.646 101.664,281.149 104.64,280.146 107.616,280.67 110.592,280.811 113.568,280.205 116.544,280.048 119.52,280.19 122.496,279.773 125.472,278.993 128.448,279.569 131.424,279.022 134.4,279.881 137.376,279.254 140.352,279.393 143.328,279.336 146.304,279.038 149.28,278.549 152.256,278.944 155.232,278.549 158.208,278.418 161.184,278.188 164.16,278.009 167.136,277.509 170.112,277.906 173.088,277.796 176.064,278.158 179.04,277.451 182.016,278.031 184.992,277.746 187.968,277.353 190.944,277.76 193.92,277.233 196.896,277.378 199.872,277.544 202.848,277.71 205.824,277.017 208.8,277.741 211.776,277.623 214.752,277.621 217.728,276.824 220.704,277.029 223.68,277.405 226.656,277.172 229.632,276.934 232.608,276.829 235.584,275.78 238.56,276.929 241.536,276.95 244.512,276.847 247.488,276.834 250.464,276.299 253.44,275.864 256.416,276.188 259.392,275.689 262.368,276.232 265.344,275.978 268.32,276.107 271.296,275.904 274.272,276.13 277.248,275.169 280.224,275.813 283.2,275.75 286.176,275.877 289.152,275.06 292.128,275.234 295.104,275.594 298.08,274.799 301.056,275.172 304.032,274.921 307.008,275.167 309.984,275.407 312.96,274.811 315.936,275.466 318.912,274.864 321.888,274.936 324.864,274.803 327.84,275.353 330.816,275.438 333.792,274.678 336.768,275.215 339.744,274.888 342.72,274.331 345.696,274.651 348.672,274.219 351.648,274.902 354.624,274.861 357.6,274.482 360.576,274.712 363.552,274.663 366.528,274.788 369.504,274.918 372.48,274.242 375.456,274.395 378.432,274.135 381.408,274.202 384.384,274.135 387.36,274.943 390.336,273.463 393.312,274.046 396.288,274.11 399.264,274.786 402.24,274.495 405.216,274.191 408.192,273.945 411.168,274.669 414.144,273.799 417.12,274.5 420.096,275.265 423.072,274.705 426.048,273.055 429.024,273.715 432,274.011 434.976,274.321 437.952,274.223 440.928,274.855 443.904,272.659 446.88,274.217 449.856,275.051 452.832,273.839 455.808,274.144 458.784,273.768 461.76,275.179 464.736,274.617 467.712,273.157 470.688,273.959 473.664,274.584 476.64,272.323 479.616,272.867 482.592,274.368 485.568,272.904 488.544,273.589 491.52,274.258 494.496,274.423 497.472,274.126 500.448,272.948 503.424,272.522 506.4,275.523 509.376,277.9 512.352,276.91 515.328,277.121 518.304,272.286 521.28,275.192 521.726,274.878"/>
<polyline fill="none" stroke="#ecb01f" stroke-width="2" stroke-linecap="butt" stroke-linejoin="round" points="77.856,79.899 80.832,148.417 83.808,157.619 86.784,159.789 89.76,160.511 92.736,160.891 95.712,161.317 98.688,161.028 101.664,160.442 104.64,160.744 107.616,161.157 110.592,161.284 113.568,160.592 116.544,160.407 119.52,160.497 122.496,160.262 125.472,160.421 128.448,160.476 131.424,160.078 134.4,160.123 137.376,160.545 140.352,160.102 143.328,160.183 146.304,159.676 149.28,159.672 152.256,159.629 155.232,159.374 158.208,159.337 161.184,159.351 164.16,159.085 167.136,158.833 170.112,158.799 173.088,158.634 176.064,158.963 179.04,158.575 182.016,158.784 184.992,158.737 187.968,158.513 190.944,158.839 193.92,158.562 196.896,158.623 199.872,158.48 202.848,158.686 205.824,158.536 208.8,158.738 211.776,158.646 214.752,158.365 217.728,158.165 220.704,158.402 223.68,158.162 226.656,158.446 229.632,158.537 232.608,158.288 235.584,157.896 238.56,158.035 241.536,158.155 244.512,158.01 247.488,158.07 250.464,157.7 253.44,157.631 256.416,157.548 259.392,157.499 262.368,157.453 265.344,157.686 268.32,157.451 271.296,157.456 274.272,157.475 277.248,157.098 280.224,157.405 283.2,157.463 286.176,157.154 289.152,156.816 292.128,157.095 295.104,156.882 298.08,156.579 301.056,156.701 304.032,156.591 307.008,156.716 309.984,156.727 312.96,156.629 315.936,156.991 318.912,156.688 321.888,156.62 324.864,156.622 327.84,156.578 330.816,156.85 333.792,156.634 336.768,156.516 339.744,156.466 342.72,156.371 345.696,156.375 348.672,156.158 351.648,156.319 354.624,156.274 357.6,156.129 360.576,156.24 363.552,156.147 366.528,156.293 369.504,156.338 372.48,156.023 375.456,156.364 378.432,156.177 381.408,156.238 384.384,156.048 387.36,155.831 390.336,155.959 393.312,155.649 396.288,156.121 399.264,156.28 402.24,156.078 405.216,156.34 408.192,156.179 411.168,155.843 414.144,155.975 417.12,156.07 420.096,156.399 423.072,155.818 426.048,156.409 429.024,155.919 432,156.226 434.976,156.477 437.952,155.935 440.928,156.137 443.904,155.914 446.88,155.923 449.856,156.102 452.832,156.201 455.808,156.186 458.784,154.713 461.76,155.745 464.736,155.566 467.712,155.397 470.688,155.212 473.664,155.741 476.64,155.45 479.616,153.127 482.592,155.412 485.568,155.48 488.544,154.975 491.52,154.766 494.496,155.844 497.472,155.569 500.448,155.525 503.424,156.064 506.4,156.761 509.376,158.716 512.352,157.458 515.328,158.595 518.304,151.769 521.28,158.94 521.726,158.028"/>
<polyline fill="none" stroke="#7d2e8d" stroke-width="2" stroke-linecap="butt" stroke-linejoin="round" points="77.856,169.258 80.832,227.942 83.808,235.608 86.784,235.519 89.76,237.908 92.736,238.097 95.712,237.822 98.688,237.145 101.664,236.807 104.64,235.816 107.616,236.583 110.592,236.135 113.568,234.716 116.544,234.667 119.52,234.723 122.496,234.436 125.472,233.152 128.448,222.012 131.424,221.656 134.4,222.79 137.376,212.031 140.352,213.196 143.328,212.791 146.304,210.872 149.28,214.161 152.256,212.106 155.232,203.273 158.208,207.843 161.184,205.821 164.16,206.168 167.136,208.617 170.112,211.098 173.088,205.591 176.064,207.508 179.04,200.711 182.016,201.52 184.992,194.299 187.968,201.718 190.944,192.207 193.92,194.801 196.896,187.035 199.872,196.345 202.848,181.796 205.824,199.078 208.8,183.816 211.776,192.63 214.752,180.678 217.728,197.589 220.704,182.805 223.68,189.866 226.656,184.901 229.632,185.543 232.608,181.647 235.584,195.775 238.56,183.68 241.536,188.458 244.512,182.138 247.488,181.036 250.464,192.263 253.44,191.338 256.416,180.07 259.392,183.421 262.368,174.635 265.344,183.154 268.32,177.785 271.296,181.456 274.272,178.794 277.248,190.193 280.224,177.286 283.2,178.177 286.176,178.375 289.152,189.917 292.128,178.899 295.104,177.566 298.08,183.543 301.056,177.05 304.032,173.254 307.008,178.606 309.984,175.069 312.96,185.449 315.936,172.23 318.912,176.097 321.888,180.091 324.864,181.064 327.84,175.785 330.816,174.41 333.792,181.884 336.768,171.362 339.744,175.073 342.72,178.791 345.696,168.941 348.672,174.295 351.648,168.256 354.624,167.524 357.6,178.747 360.576,171.231 363.552,170.144 366.528,169.276 369.504,172.958 372.48,171.684 375.456,166.609 378.432,168.782 381.408,168.918 384.384,177.802 387.36,169.649 390.336,173.771 393.312,177.578 396.288,178.364 399.264,169.953 402.24,169.057 405.216,168.436 408.192,173.946 411.168,169.03 414.144,174.731 417.12,166.768 420.096,168.766 423.072,177.813 426.048,173.763 429.024,178.047 432,173.072 434.976,168.876 437.952,178.295 440.928,177.403 443.904,176.732 446.88,169.456 449.856,175.047 452.832,174.399 455.808,170.727 458.784,169.993 461.76,170.85 464.736,173.36 467.712,176.783 470.688,175.638 473.664,174.04 476.64,178.419 479.616,174.837 482.592,168.933 485.568,177.902 488.544,171.452 491.52,176.785 494.496,173.734 497.472,179.773 500.448,176.655 503.424,175.184 506.4,169.793 509.376,168.44 512.352,174.752 515.328,176.895 518.304,173.782 521.28,159.403 521.726,156.404"/>
<polyline fill="none" stroke="#76ab2f" stroke-width="2" stroke-linecap="butt" stroke-linejoin="round" points="77.856,178.235 80.832,233.87 83.808,240.773 86.784,239.48 89.76,240.927 92.736,240.883 95.712,240.698 98.688,240.374 101.664,239.953 104.64,238.755 107.616,239.666 110.592,239.725 113.568,238.341 116.544,238.299 119.52,236.576 122.496,238.36 125.472,235.13 128.448,178.5 131.424,234.646 134.4,233.979 137.376,168.708 140.352,197.754 143.328,233.524 146.304,195.417 149.28,235.324 152.256,194.787 155.232,157.501 158.208,195.215 161.184,230.706 164.16,192.74 167.136,227.043 170.112,230.295 173.088,160.686 176.064,194.731 179.04,164.689 182.016,172.645 184.992,166.411 187.968,194.408 190.944,160.655 193.92,192.714 196.896,163.478 199.872,176.106 202.848,155.26 205.824,188.225 208.8,171.872 211.776,196.268 214.752,165.85 217.728,186.58 220.704,165.959 223.68,195.48 226.656,166.734 229.632,167.119 232.608,156.01 235.584,185.458 238.56,167.497 241.536,177.827 244.512,166.628 247.488,160.632 250.464,159.592 253.44,168.802 256.416,165.424 259.392,193.713 262.368,159.772 265.344,225.621 268.32,162.286 271.296,179.212 274.272,151.675 277.248,188.434 280.224,165.499 283.2,175.006 286.176,151.165 289.152,184.511 292.128,160.87 295.104,136.75 298.08,162.862 301.056,182.033 304.032,162.149 307.008,166.591 309.984,152.029 312.96,184.17 315.936,153.512 318.912,137.996 321.888,162.831 324.864,166.715 327.84,171.024 330.816,147.754 333.792,166.837 336.768,160.806 339.744,161.561 342.72,172.378 345.696,163.394 348.672,171.462 351.648,160.215 354.624,145.265 357.6,173.038 360.576,171.005 363.552,160.402 366.528,167.922 369.504,152.949 372.48,171.296 375.456,149.239 378.432,179.09 381.408,144.139 384.384,166.288 387.36,146.207 390.336,131.952 393.312,146.059 396.288,168.126 399.264,149.433 402.24,165.602 405.216,138.592 408.192,170.925 411.168,152.448 414.144,180.102 417.12,164.49 420.096,151.387 423.072,155.678 426.048,127.104 429.024,167.633 432,168.318 434.976,143.653 437.952,142.509 440.928,136.093 443.904,168.569 446.88,151.161 449.856,156.768 452.832,168.056 455.808,184.957 458.784,160.149 461.76,158.844 464.736,144.701 467.712,156.038 470.688,163.143 473.664,123.024 476.64,147.766 479.616,175.636 482.592,142.729 485.568,167.516 488.544,145.196 491.52,156.029 494.496,139.372 497.472,128.283 500.448,141.506 503.424,158.065 506.4,157.058 509.376,128.118 512.352,142.399 515.328,129.65 518.304,145.6 521.28,177.357 521.726,172.018"/>
</g>
<clipPath id="cp00576432">
  <polygon points="0,432 576,432 576,0 0,0"/>
</clipPath>
<g clip-path="url(#cp00576432)">
<polygon fill="#ffffff" shape-rendering="crispEdges" points="77.6258,105.446 155.828,105.446 77.6258,35.1458"/>
<polygon fill="#ffffff" shape-rendering="crispEdges" points="155.828,105.446 155.828,35.1458 77.6258,35.1458"/>
<polyline fill="none" stroke="#262626" stroke-width="0.5" stroke-linecap="square" stroke-linejoin="miter" stroke-dasharray="16,0" points="77.6258,105.446 155.828,105.446"/>
<polyline fill="none" stroke="#262626" stroke-width="0.5" stroke-linecap="square" stroke-linejoin="miter" stroke-dasharray="16,0" points="77.6258,35.1458 155.828,35.1458"/>
<polyline fill="none" stroke="#262626" stroke-width="0.5" stroke-linecap="square" stroke-linejoin="miter" stroke-dasharray="16,0" points="77.6258,105.446 77.6258,35.1458"/>
<polyline fill="none" stroke="#262626" stroke-width="0.5" stroke-linecap="square" stroke-linejoin="miter" stroke-dasharray="16,0" points="155.828,105.446 155.828,35.1458"/>
<text xml:space="preserve" transform="translate(103.711,47.6759) rotate(-0,-0,-5.5)" font-family="FreeSans" font-weight="normal" font-style="normal" font-size="9"><tspan y="-1" fill="rgb(0,0,0)" x="0 4 11 16 18 21 23 28 33 38 41 ">ymulticoeff</tspan></text>
<text xml:space="preserve" transform="translate(103.711,61.7359) rotate(-0,-0,-5.5)" font-family="FreeSans" font-weight="normal" font-style="normal" font-size="9"><tspan y="-1" fill="rgb(0,0,0)" x="0 5 12 17 19 22 24 29 34 39 42 ">gmulticoeff</tspan></text>
<text xml:space="preserve" transform="translate(103.711,75.796) rotate(-0,-0,-5.5)" font-family="FreeSans" font-weight="normal" font-style="normal" font-size="9"><tspan y="-1" fill="rgb(0,0,0)" x="0 7 12 14 17 19 24 29 34 37 ">multicoeff</tspan></text>
<text xml:space="preserve" transform="translate(103.711,89.8561) rotate(-0,-0,-5.5)" font-family="FreeSans" font-weight="normal" font-style="normal" font-size="9"><tspan y="-1" fill="rgb(0,0,0)" x="0 5 8 15 20 22 25 27 32 37 42 45 ">armulticoeff</tspan></text>
<text xml:space="preserve" transform="translate(103.711,103.916) rotate(-0,-0,-5.5)" font-family="FreeSans" font-weight="normal" font-style="normal" font-size="9"><tspan y="-1" fill="rgb(0,0,0)" x="0 4 7 14 19 21 24 26 31 36 41 44 ">vfmulticoeff</tspan></text>
<polyline fill="none" stroke="#0071bc" stroke-width="2" stroke-linecap="butt" stroke-linejoin="round" points="80.3716,42.1758 100.965,42.1758"/>
<polyline fill="none" stroke="#d85218" stroke-width="2" stroke-linecap="butt" stroke-linejoin="round" points="80.3716,56.2359 100.965,56.2359"/>
<polyline fill="none" stroke="#ecb01f" stroke-width="2" stroke-linecap="butt" stroke-linejoin="round" points="80.3716,70.296 100.965,70.296"/>
<polyline fill="none" stroke="#7d2e8d" stroke-width="2" stroke-linecap="butt" stroke-linejoin="round" points="80.3716,84.3561 100.965,84.3561"/>
<polyline fill="none" stroke="#76ab2f" stroke-width="2" stroke-linecap="butt" stroke-linejoin="round" points="80.3716,98.4162 100.965,98.4162"/>
</g>
</g>
</svg>
